<svg width="58" height="58" viewBox="0 0 58 58" fill="none" xmlns="http://www.w3.org/2000/svg">
<path fill-rule="evenodd" clip-rule="evenodd" d="M28.8476 24.3242C31.6146 24.3242 33.8588 26.5685 33.8588 29.3355C33.8588 32.1058 31.6146 34.35 28.8476 34.35C26.0772 34.35 23.833 32.1058 23.833 29.3355C23.833 26.5685 26.0772 24.3242 28.8476 24.3242Z" fill="#D4BF9B"/>
<path fill-rule="evenodd" clip-rule="evenodd" d="M29.2936 35.0557L19.8405 47.046L29.0639 57.8177L37.851 47.2725L29.2936 35.0557Z" fill="#D4BF9B"/>
<path fill-rule="evenodd" clip-rule="evenodd" d="M29.2936 23.3916L19.8405 11.3979L29.0639 0.626221L37.851 11.1748L29.2936 23.3916Z" fill="#D4BF9B"/>
<path fill-rule="evenodd" clip-rule="evenodd" d="M34.5182 28.8892L46.5119 38.3423L57.2836 29.1189L46.735 20.3318L34.5182 28.8892Z" fill="#D4BF9B"/>
<path fill-rule="evenodd" clip-rule="evenodd" d="M0.528198 29.7849L12.5219 20.3318L23.2969 29.5551L12.7483 38.3423L0.528198 29.7849Z" fill="#D4BF9B"/>
</svg>
