<svg width="15" height="15" viewBox="0 0 15 15" fill="none" xmlns="http://www.w3.org/2000/svg">
<path d="M12.1613 4.2181H2.21275V2.92046C2.21275 2.80574 2.16718 2.69572 2.08606 2.6146C2.00494 2.53349 1.89492 2.48792 1.7802 2.48792C1.66548 2.48792 1.55546 2.53349 1.47435 2.6146C1.39323 2.69572 1.34766 2.80574 1.34766 2.92046V11.5714C1.34766 11.6861 1.39323 11.7961 1.47435 11.8772C1.55546 11.9584 1.66548 12.0039 1.7802 12.0039C1.89492 12.0039 2.00494 11.9584 2.08606 11.8772C2.16718 11.7961 2.21275 11.6861 2.21275 11.5714V9.84119H13.4589V11.5714C13.4589 11.6861 13.5045 11.7961 13.5856 11.8772C13.6667 11.9584 13.7768 12.0039 13.8915 12.0039C14.0062 12.0039 14.1162 11.9584 14.1973 11.8772C14.2785 11.7961 14.324 11.6861 14.324 11.5714V6.38083C14.324 5.80724 14.0962 5.25714 13.6906 4.85155C13.285 4.44596 12.7349 4.2181 12.1613 4.2181ZM2.21275 5.08319H6.10566V8.9761H2.21275V5.08319ZM6.97075 8.9761V5.08319H12.1613C12.5055 5.08319 12.8355 5.2199 13.0789 5.46326C13.3222 5.70661 13.4589 6.03667 13.4589 6.38083V8.9761H6.97075Z" fill="white"/>
</svg>
