<svg width="15" height="15" viewBox="0 0 15 15" fill="none" xmlns="http://www.w3.org/2000/svg">
<path d="M12.8526 11.7878C12.0292 10.3641 10.7602 9.34333 9.27928 8.85942C10.0118 8.42334 10.5809 7.75885 10.8993 6.968C11.2176 6.17716 11.2675 5.30368 11.0414 4.48171C10.8152 3.65974 10.3255 2.93473 9.64747 2.41802C8.9694 1.9013 8.14046 1.62146 7.28794 1.62146C6.43543 1.62146 5.60649 1.9013 4.92842 2.41802C4.25035 2.93473 3.76064 3.65974 3.5345 4.48171C3.30835 5.30368 3.35828 6.17716 3.67661 6.968C3.99495 7.75885 4.56408 8.42334 5.29661 8.85942C3.81568 9.34279 2.5467 10.3636 1.72324 11.7878C1.69305 11.837 1.67302 11.8918 1.66434 11.9489C1.65566 12.006 1.6585 12.0643 1.6727 12.1202C1.68691 12.1762 1.71218 12.2288 1.74703 12.2749C1.78188 12.3209 1.8256 12.3596 1.87562 12.3884C1.92564 12.4173 1.98094 12.4359 2.03825 12.4431C2.09556 12.4503 2.15373 12.4459 2.20933 12.4302C2.26492 12.4145 2.31682 12.3879 2.36195 12.3518C2.40707 12.3158 2.44453 12.2711 2.47209 12.2203C3.49073 10.4598 5.29121 9.40875 7.28794 9.40875C9.28468 9.40875 11.0852 10.4598 12.1038 12.2203C12.1314 12.2711 12.1688 12.3158 12.2139 12.3518C12.2591 12.3879 12.311 12.4145 12.3666 12.4302C12.4222 12.4459 12.4803 12.4503 12.5376 12.4431C12.595 12.4359 12.6503 12.4173 12.7003 12.3884C12.7503 12.3596 12.794 12.3209 12.8289 12.2749C12.8637 12.2288 12.889 12.1762 12.9032 12.1202C12.9174 12.0643 12.9202 12.006 12.9116 11.9489C12.9029 11.8918 12.8828 11.837 12.8526 11.7878ZM4.26012 5.51584C4.26012 4.917 4.4377 4.3316 4.7704 3.83368C5.10311 3.33575 5.57599 2.94767 6.12925 2.7185C6.68251 2.48933 7.2913 2.42937 7.87864 2.5462C8.46598 2.66303 9.00549 2.9514 9.42894 3.37485C9.85238 3.7983 10.1408 4.3378 10.2576 4.92514C10.3744 5.51248 10.3145 6.12128 10.0853 6.67454C9.85612 7.2278 9.46803 7.70068 8.97011 8.03338C8.47219 8.36608 7.88679 8.54366 7.28794 8.54366C6.48518 8.5428 5.71554 8.22353 5.1479 7.65589C4.58026 7.08825 4.26098 6.31861 4.26012 5.51584Z" fill="white"/>
</svg>
