<?xml version="1.0" encoding="UTF-8"?>
<!DOCTYPE svg PUBLIC "-//W3C//DTD SVG 1.1//EN" "http://www.w3.org/Graphics/SVG/1.1/DTD/svg11.dtd">
<!-- Creator: CorelDRAW -->
<svg xmlns="http://www.w3.org/2000/svg" xml:space="preserve" width="17.1009mm" height="5.5287mm" version="1.1" style="shape-rendering:geometricPrecision; text-rendering:geometricPrecision; image-rendering:optimizeQuality; fill-rule:evenodd; clip-rule:evenodd"
viewBox="0 0 4527.23 1463.65"
 xmlns:xlink="http://www.w3.org/1999/xlink"
 xmlns:xodm="http://www.corel.com/coreldraw/odm/2003">
 <defs>
  <style type="text/css">
   <![CDATA[
    .fil1 {fill:#060606}
    .fil2 {fill:#E5B12A}
    .fil0 {fill:#E9D6B4;fill-rule:nonzero}
   ]]>
  </style>
 </defs>
 <g id="Layer_x0020_1">
  <metadata id="CorelCorpID_0Corel-Layer"/>
  <g id="_3086142007488">
   <path class="fil0" d="M1050.24 1355.18l0 -40.4 88.37 0c9.03,0 16.25,-3.2 21.66,-9.58 5.43,-6.43 8.21,-14.93 8.31,-25.52l0 0c0,-10.46 -2.75,-18.9 -8.18,-25.28 -5.48,-6.43 -12.76,-9.64 -21.79,-9.64l-88.37 0 0 -40.37 89.56 0c14.64,0 27.35,3.12 38.28,9.37 10.96,6.22 19.41,15.01 25.41,26.26 6.01,11.3 8.97,24.49 8.97,39.66l0 0c0,15.17 -3.02,28.41 -9.03,39.68 -6.09,11.3 -14.59,20.09 -25.41,26.37 -10.88,6.3 -23.59,9.45 -38.23,9.45l-89.56 0zm-17.47 105.82l0 -256.61 42.15 0 0 256.61 -42.15 0zm139.83 0l-60.49 -113.78 43.76 -8.05 67.38 121.83 -50.64 0zm144.57 -256.45l0 256.45 -43.05 0 0 -256.45 43.05 0zm130.94 256.45l-84.45 -256.45 44.42 0 58.03 186.08 58.03 -186.08 44.45 0 -84.48 256.45 -36 0zm163.4 0l0 -256.45 42.15 0 0 256.45 -42.15 0zm17.47 0l0 -40.4 150.79 0 0 40.4 -150.79 0zm0 -107.22l0 -40.37 131.42 0.16 0 40.21 -131.42 0zm0 -108.83l0 -40.4 150.79 0 0 40.4 -150.79 0zm223.54 110.24l0 -40.4 88.37 0c9.03,0 16.25,-3.2 21.66,-9.58 5.43,-6.43 8.21,-14.93 8.31,-25.52l0 0c0,-10.46 -2.75,-18.9 -8.18,-25.28 -5.48,-6.43 -12.76,-9.64 -21.79,-9.64l-88.37 0 0 -40.37 89.56 0c14.64,0 27.35,3.12 38.28,9.37 10.96,6.22 19.41,15.01 25.41,26.26 6.01,11.3 8.97,24.49 8.97,39.66l0 0c0,15.17 -3.02,28.41 -9.03,39.68 -6.09,11.3 -14.59,20.09 -25.41,26.37 -10.88,6.3 -23.59,9.45 -38.23,9.45l-89.56 0zm-17.47 105.82l0 -256.61 42.15 0 0 256.61 -42.15 0zm139.83 0l-60.49 -113.78 43.76 -8.05 67.38 121.83 -50.64 0zm217.72 -105.82l0 -40.4 88.37 0c9.03,0 16.25,-3.2 21.68,-9.58 5.43,-6.43 8.21,-14.93 8.31,-25.52l0 0c0,-10.46 -2.75,-18.9 -8.18,-25.28 -5.51,-6.43 -12.79,-9.64 -21.81,-9.64l-88.37 0 0 -40.37 89.56 0c14.64,0 27.37,3.12 38.31,9.37 10.96,6.22 19.41,15.01 25.41,26.26 6.01,11.3 8.97,24.49 8.97,39.66l0 0c0,15.17 -3.02,28.41 -9.03,39.68 -6.09,11.3 -14.59,20.09 -25.41,26.37 -10.88,6.3 -23.61,9.45 -38.25,9.45l-89.56 0zm-17.47 105.82l0 -256.61 42.15 0 0 256.61 -42.15 0zm139.86 0l-60.52 -113.78 43.79 -8.05 67.38 121.83 -50.64 0zm103.25 0l0 -256.45 42.15 0 0 256.45 -42.15 0zm17.47 0l0 -40.4 150.82 0 0 40.4 -150.82 0zm0 -107.22l0 -40.37 131.44 0.16 0 40.21 -131.44 0zm0 -108.83l0 -40.4 150.82 0 0 40.4 -150.82 0zm284.94 218.7c-12.34,0 -24.2,-1.19 -35.58,-3.6 -11.3,-2.41 -21.89,-6.04 -31.85,-10.77 -9.87,-4.77 -18.96,-10.54 -27.32,-17.34l0 0 22.4 -33.73 0 0c9.93,8.26 21.02,14.51 33.36,18.9 12.34,4.34 25.34,6.51 39,6.51 17.15,0 30.47,-3.07 39.92,-9.27 9.45,-6.14 14.19,-14.83 14.19,-25.84l0 -0.19c0,-8.6 -2.41,-15.17 -7.15,-19.72 -4.77,-4.58 -11.01,-7.94 -18.8,-10.19 -7.76,-2.14 -16.18,-4.02 -25.39,-5.53 -9.77,-1.51 -19.64,-3.42 -29.68,-5.72 -10.06,-2.28 -19.27,-5.9 -27.69,-10.77 -8.45,-4.87 -15.17,-11.86 -20.31,-20.94 -5.11,-9.16 -7.62,-21.26 -7.62,-36.43l0 -0.19c0,-24.49 8.05,-43.39 24.2,-56.81 16.18,-13.37 39,-20.12 68.57,-20.12 13.85,0 27.69,2.3 41.4,6.8 13.79,4.53 26.79,11.2 39.15,20.07l0 0 -20.44 34.73 0 0c-9.8,-7.17 -19.8,-12.6 -29.97,-16.15 -10.25,-3.6 -20.28,-5.4 -30.15,-5.4 -16.15,0 -28.67,2.99 -37.57,8.9 -8.97,5.96 -13.42,14.32 -13.42,25.18l0 0.16c0,8.92 2.57,15.73 7.81,20.36 5.24,4.63 12.1,8.07 20.6,10.3 8.42,2.28 17.53,4.32 27.14,6.19 9.64,1.85 19.27,4.16 28.86,6.86 9.56,2.7 18.29,6.62 26.24,11.75 7.94,5.11 14.27,12.1 18.96,20.99 4.74,8.84 7.07,20.41 7.07,34.63l0 0.34c0,24.14 -8.39,42.81 -25.12,56.1 -16.73,13.32 -40.4,19.93 -70.79,19.93zm230.77 0c-18.48,0 -34.6,-3.92 -48.31,-11.73 -13.79,-7.84 -24.46,-18.85 -32.09,-33.07 -7.65,-14.27 -11.52,-30.82 -11.52,-49.72l0 -72.64c0,-19.09 3.87,-35.71 11.52,-49.85 7.62,-14.14 18.29,-25.18 32.09,-32.99 13.71,-7.84 29.84,-11.75 48.31,-11.75 18.43,0 34.57,3.92 48.29,11.75 13.79,7.81 24.49,18.85 32.09,32.99 7.65,14.14 11.49,30.76 11.49,49.85l0 72.64c0,18.9 -3.84,35.45 -11.49,49.72 -7.6,14.22 -18.29,25.23 -32.09,33.07 -13.71,7.81 -29.86,11.73 -48.29,11.73zm0 -41.78c14.69,-0.13 26.45,-4.87 35.24,-14.22 8.84,-9.37 13.24,-21.79 13.24,-37.3l0 -75.13c0,-15.65 -4.39,-28.11 -13.24,-37.43 -8.79,-9.4 -20.54,-14.03 -35.24,-14.03 -14.61,0 -26.29,4.63 -35.21,14.03 -8.84,9.32 -13.24,21.79 -13.1,37.43l0 75.13c-0.13,15.51 4.26,27.93 13.1,37.3 8.92,9.35 20.6,14.08 35.21,14.22zm168.11 -66.69l0 -40.4 88.37 0c9.03,0 16.25,-3.2 21.66,-9.58 5.43,-6.43 8.21,-14.93 8.31,-25.52l0 0c0,-10.46 -2.75,-18.9 -8.18,-25.28 -5.48,-6.43 -12.76,-9.64 -21.79,-9.64l-88.37 0 0 -40.37 89.56 0c14.64,0 27.35,3.12 38.28,9.37 10.96,6.22 19.41,15.01 25.41,26.26 6.01,11.3 8.97,24.49 8.97,39.66l0 0c0,15.17 -3.02,28.41 -9.03,39.68 -6.09,11.3 -14.59,20.09 -25.41,26.37 -10.88,6.3 -23.59,9.45 -38.23,9.45l-89.56 0zm-17.47 105.82l0 -256.61 42.15 0 0 256.61 -42.15 0zm139.83 0l-60.49 -113.78 43.76 -8.05 67.38 121.83 -50.64 0zm139.28 0l0 -235.43 41.96 0 0.19 235.43 -42.15 0zm-71.29 -216.05l0 -40.4 184.52 0 0 40.4 -184.52 0z"/>
   <path class="fil1" d="M932.88 188.39l-232.09 0c-14.4,0 -26.18,11.78 -26.18,26.24l0 806.12c0,14.45 11.78,26.24 26.18,26.24l232.09 0c14.45,0 26.24,-11.78 26.24,-26.24l0 -806.12c0,-14.45 -11.78,-26.24 -26.24,-26.24z"/>
   <path class="fil1" d="M3784.96 692.76c0,0 15.94,444.25 595.89,337.7l0 -158.6 0 -0.69 0 -118.95 0 -113.36c0,-14.38 -11.83,-38.39 -26.18,-38.55l-123 -1.4 0 -132.37 67.77 0c0,0 119.55,2.3 141.45,67.22 -0.32,14.88 52.47,19.09 53.11,-7.78 8.87,-170.81 -105.07,-337.59 -288.62,-337.59l-15.51 0 -15.51 0 -201.01 0c-14.48,0 -26.21,11.78 -26.21,26.24 0,146.29 0,323.27 0,469.56l279.22 0.16 -1.61 64.65 -277.6 0c-10.46,-2.75 -80.14,3.23 -109.07,-64.01 -4.05,-25.15 -54.03,-22.45 -53.11,7.78z"/>
   <path class="fil1" d="M346.22 13.21l222.99 56.79 2.36 0.08 0.74 0c0,0 18.51,-2.65 22.53,20.2 0.48,1.96 0.71,4.05 0.71,6.01l0 910.69 -0.05 1.32 0 13.93c0,0 0.61,21.34 -17.63,24.62l-168.82 0c-104.65,1.51 -411.21,-5.82 -409.02,-402.48 -1.93,-190.77 114.26,-206.86 141.4,-104.99 23.77,89.32 71.27,142.64 168.56,138.22l0 -596.77 36.24 -67.61z"/>
   <path class="fil1" d="M3800.63 68.22c0,30.95 0.53,94.14 -34.34,105.89 -9.74,2.94 -12.18,23.22 3.79,25.84 101.29,9.21 153.68,-40.45 160.14,-141.95 2.38,-37.57 -130.22,-42.62 -129.72,-0.95l0.13 11.17z"/>
   <path class="fil1" d="M3446.52 188.41l233.02 0c14.51,0 26.34,11.81 26.34,26.31l0 805.91c0,14.48 -11.83,26.34 -26.34,26.34l-233.02 0c-14.51,0 -26.31,-11.86 -26.31,-26.34l0 -323.85c-396.42,-8.05 -390.01,-243.93 -393.82,-321.65l0 -168.93c3.26,-18.21 24.62,-17.66 24.62,-17.66l13.9 0 1.32 0 208.45 0c32.46,-0.03 35.37,7.78 35.37,24.57 0,93.77 -6.43,162.1 -2.25,252.45 2.97,102.29 67.45,147.01 112.41,153.15l0 -403.99c0,-14.51 11.81,-26.31 26.31,-26.31z"/>
   <path class="fil1" d="M1064.37 188.47l232.09 0c14.4,0 26.18,11.78 26.18,26.24l0 806.04c0,14.43 -11.78,26.24 -26.18,26.24l-232.09 0c-14.45,0 -26.21,-11.81 -26.21,-26.24l0 -806.04c0,-14.45 11.75,-26.24 26.21,-26.24z"/>
   <path class="fil1" d="M1694.95 188.47l232.07 0c14.43,0 26.21,11.78 26.21,26.24l0 806.04c0,14.43 -11.78,26.24 -26.21,26.24l-232.07 0c-14.45,0 -26.24,-11.81 -26.24,-26.24l0 -806.04c0,-14.45 11.78,-26.24 26.24,-26.24z"/>
   <path class="fil1" d="M1768.25 188.52l-71.58 -0.11c-168.48,-0.26 -142.75,266.64 -167.71,265.95 -22.29,-0.32 -2.67,-256.82 -231.14,-265.85 -4.05,-0.19 -8.31,-0.05 -12.6,-0.05l-56.44 0 32.14 262.59c0,0 143.96,-82.92 211.02,128.9l45.01 0c0,0 49.69,-204.67 212.29,-128.9l39.02 -262.54z"/>
   <polygon class="fil1" points="1482.28,356.28 1494.54,438.32 1511.06,350.35 1514.56,384.4 1506.59,460.54 1484.11,460.54 "/>
   <path class="fil1" d="M2058.48 188.47l232.09 0c14.4,0 26.18,11.78 26.18,26.24l0 806.04c0,14.43 -11.78,26.24 -26.18,26.24l-232.09 0c-14.45,0 -26.21,-11.81 -26.21,-26.24l0 -806.04c0,-14.45 11.75,-26.24 26.21,-26.24z"/>
   <path class="fil1" d="M2689.06 188.47l232.07 0c14.43,0 26.21,11.78 26.21,26.24l0 806.04c0,14.43 -11.78,26.24 -26.21,26.24l-232.07 0c-14.45,0 -26.24,-11.81 -26.24,-26.24l0 -806.04c0,-14.45 11.78,-26.24 26.24,-26.24z"/>
   <path class="fil1" d="M2762.36 188.52l-71.58 -0.11c-172.5,-0.26 -140.34,284.67 -165.27,283.98 -22.29,-0.37 -5.11,-274.85 -233.58,-283.88 -4.1,-0.19 -8.31,-0.05 -12.6,-0.05l-56.44 0 32.14 262.59c0,0 143.96,-82.92 211.02,128.9l45.01 0c0,0 49.69,-204.67 212.29,-128.9l39.02 -262.54z"/>
   <polygon class="fil1" points="2476.4,356.28 2488.65,438.32 2505.17,350.35 2508.67,384.4 2500.7,460.54 2478.22,460.54 "/>
   <polygon class="fil1" points="674.6,218.46 674.6,194.95 709.73,133.69 759.58,136.1 745.26,224.28 "/>
   <polygon class="fil1" points="1038.16,218.46 1038.16,194.95 1073.27,133.69 1123.12,136.1 1108.82,224.28 "/>
   <polygon class="fil1" points="2032.25,218.46 2032.25,194.95 2067.38,133.69 2117.23,136.1 2102.91,224.28 "/>
   <polygon class="fil1" points="3026.38,218.46 3026.38,194.95 3061.49,133.69 3111.37,136.1 3097.04,224.28 "/>
   <polygon class="fil1" points="3420.23,218.46 3420.23,194.95 3455.36,133.69 3505.21,136.1 3490.89,224.28 "/>
   <polygon class="fil1" points="3947.11,218.46 3947.11,194.95 3982.24,133.69 4032.09,136.1 4017.77,224.28 "/>
   <polygon class="fil1" points="3784.91,693.69 3784.91,670.15 3820.14,611.43 3869.86,611.33 3855.57,699.51 "/>
   <polygon class="fil1" points="3800.18,95.78 3800.21,44.74 3841.98,18.85 3891.86,21.26 3877.54,109.44 "/>
   <polygon class="fil1" points="2.09,598.22 10.62,531.83 53.34,456.56 103.22,458.97 88.9,547.16 "/>
   <polygon class="fil1" points="623.4,944.23 623.4,967.77 587.71,1046.95 535.01,1046.85 552.77,938.41 "/>
   <polygon class="fil1" points="986.22,944.23 986.22,967.77 950.54,1046.95 897.83,1046.85 915.56,938.41 "/>
   <polygon class="fil1" points="1350.18,944.23 1350.18,967.77 1314.47,1046.95 1261.76,1046.85 1279.52,938.41 "/>
   <polygon class="fil1" points="1980.76,944.23 1980.76,967.77 1945.04,1046.95 1892.36,1046.85 1910.1,938.41 "/>
   <polygon class="fil1" points="2344.5,944.23 2344.5,967.77 2308.79,1046.95 2256.08,1046.85 2273.85,938.41 "/>
   <polygon class="fil1" points="2973.94,944.23 2973.94,967.77 2938.25,1046.95 2885.55,1046.85 2903.28,938.41 "/>
   <polygon class="fil1" points="3732.99,944.23 3732.99,967.77 3697.31,1046.95 3644.6,1046.85 3662.33,938.41 "/>
   <polygon class="fil1" points="4413.42,936.58 4413.42,960.09 4380.88,1030.46 4325,1039.2 4342.76,930.76 "/>
   <polygon class="fil1" points="4523.65,435.07 4523.68,465.12 4491.62,534.5 4450.16,534.95 4456.44,428.45 "/>
   <g>
    <path class="fil2" d="M965.6 118.42l-232.09 0c-14.43,0 -26.21,11.81 -26.21,26.24l0 806.12c0,14.45 11.78,26.24 26.21,26.24l232.09 0c14.43,0 26.21,-11.78 26.21,-26.24l0 -806.12c0,-14.43 -11.78,-26.24 -26.21,-26.24z"/>
    <path class="fil2" d="M3817.68 622.79c0,0 15.94,444.25 595.89,337.7l0 -158.58 0 -0.71 0 -118.95 0 -113.36c0,-14.38 -11.83,-26.24 -26.18,-26.24l-123 0 0 -146.08 67.77 0c0,0 119.55,2.3 141.42,67.24 -0.29,14.85 52.5,19.06 53.13,-7.78 8.87,-170.83 -105.07,-337.59 -288.62,-337.59l-15.51 0 -15.51 0 -201.04 0c-14.48,0 -26.18,11.75 -26.18,26.21 0,146.29 0,317.45 0,463.74l277.6 0 0 70.63 -277.6 0c-10.48,-2.75 -80.14,3.23 -109.07,-64.01 -4.08,-25.15 -54.06,-22.45 -53.11,7.78z"/>
    <path class="fil2" d="M369.02 0.03l232.91 0 2.33 0.08 0.74 0c0,0 18.53,-2.65 22.56,20.2 0.45,1.96 0.69,4.05 0.69,6.01l0 910.69 -0.03 1.32 0 13.95c0,0 0.61,21.31 -17.66,24.59l-168.82 0c-104.65,1.51 -411.21,-5.82 -408.99,-402.48 -1.96,-190.77 114.26,-206.86 141.4,-104.99 23.77,89.32 71.27,142.64 168.53,138.22l0 -581.31c0,-14.45 11.83,-26.29 26.34,-26.29z"/>
    <path class="fil2" d="M3839.2 40.45c0,30.95 0.53,94.14 -34.34,105.89 -9.74,2.94 -12.18,23.22 3.79,25.84 101.29,9.21 153.65,-40.45 160.11,-141.95 2.41,-37.57 -130.2,-42.6 -129.69,-0.95l0.13 11.17z"/>
    <path class="fil2" d="M3479.24 118.44l232.99 0c14.53,0 26.37,11.83 26.37,26.31l0 805.91c0,14.48 -11.83,26.34 -26.37,26.34l-232.99 0c-14.53,0 -26.31,-11.86 -26.31,-26.34l0 -323.85c-396.44,-8.05 -390.01,-243.93 -393.85,-321.63l0 -168.95c3.28,-18.21 24.62,-17.66 24.62,-17.66l13.9 0 1.35 0 208.43 0c32.48,-0.03 35.4,7.81 35.4,24.57 0,93.77 -6.43,162.1 -2.28,252.45 2.97,102.29 67.48,147.01 112.43,153.18l0 -404.01c0,-14.48 11.78,-26.31 26.31,-26.31z"/>
    <g>
     <path class="fil2" d="M1097.09 118.5l232.09 0c14.4,0 26.18,11.78 26.18,26.24l0 806.04c0,14.45 -11.78,26.24 -26.18,26.24l-232.09 0c-14.45,0 -26.24,-11.78 -26.24,-26.24l0 -806.04c0,-14.45 11.78,-26.24 26.24,-26.24z"/>
     <path class="fil2" d="M1727.64 118.5l232.09 0c14.4,0 26.18,11.78 26.18,26.24l0 806.04c0,14.45 -11.78,26.24 -26.18,26.24l-232.09 0c-14.45,0 -26.21,-11.78 -26.21,-26.24l0 -806.04c0,-14.45 11.75,-26.24 26.21,-26.24z"/>
     <path class="fil2" d="M1800.97 118.55l-71.61 -0.11c-229.29,-0.32 -176.5,252.03 -201.46,251.34 -22.26,-0.37 31.08,-242.13 -197.39,-251.23 -4.08,-0.13 -8.31,-0.05 -12.6,-0.05l-56.42 0 32.14 262.59c0,0 143.96,-82.92 211.02,128.9l45.01 0c0,0 49.66,-204.67 212.29,-128.9l39.02 -262.54z"/>
     <polygon class="fil2" points="1515.01,286.31 1527.26,368.35 1543.76,280.38 1547.28,314.43 1539.28,390.57 1516.81,390.57 "/>
    </g>
    <g>
     <path class="fil2" d="M2091.2 118.5l232.09 0c14.4,0 26.18,11.78 26.18,26.24l0 806.04c0,14.45 -11.78,26.24 -26.18,26.24l-232.09 0c-14.45,0 -26.24,-11.78 -26.24,-26.24l0 -806.04c0,-14.45 11.78,-26.24 26.24,-26.24z"/>
     <path class="fil2" d="M2721.75 118.5l232.09 0c14.4,0 26.18,11.78 26.18,26.24l0 806.04c0,14.45 -11.78,26.24 -26.18,26.24l-232.09 0c-14.45,0 -26.21,-11.78 -26.21,-26.24l0 -806.04c0,-14.45 11.75,-26.24 26.21,-26.24z"/>
     <path class="fil2" d="M2795.08 118.55l-71.61 -0.11c-229.29,-0.32 -176.5,252.03 -201.46,251.34 -22.26,-0.37 31.08,-242.13 -197.39,-251.23 -4.08,-0.13 -8.31,-0.05 -12.6,-0.05l-56.42 0 32.14 262.59c0,0 143.96,-82.92 211.02,128.9l45.01 0c0,0 49.66,-204.67 212.29,-128.9l39.02 -262.54z"/>
     <polygon class="fil2" points="2509.12,286.31 2521.37,368.35 2537.87,280.38 2541.39,314.43 2533.39,390.57 2510.92,390.57 "/>
    </g>
   </g>
  </g>
 </g>
</svg>
