<svg width="505" height="333" viewBox="0 0 505 333" fill="none" xmlns="http://www.w3.org/2000/svg">
<path fill-rule="evenodd" clip-rule="evenodd" d="M13.0197 21.8477C13.0197 21.8477 14.5329 19.5749 16.6012 21.1558C18.671 22.7367 20.1015 21.8883 21.1394 20.8504C22.1788 19.8125 22.6045 18.0827 21.3033 16.5364C20.0007 14.99 20.8972 13.3625 21.6659 12.8104C21.6659 12.8104 19.6502 10.9482 17.6346 13.5791C17.6346 13.5791 13.4183 12.6555 13.5416 17.672C13.5416 17.672 10.7107 20.2878 13.0197 21.8477Z" fill="#2B2A29" fill-opacity="0.721569"/>
<path fill-rule="evenodd" clip-rule="evenodd" d="M0.396484 19.3044C0.396484 19.3044 2.86188 19.1991 4.49243 17.9837C6.12299 16.7668 7.38201 13.1643 9.53754 14.1976C9.53754 14.1976 12.1443 15.6658 9.74963 18.6787C9.74963 18.6787 8.43495 20.0505 8.88772 20.8417C9.34048 21.6344 6.90819 20.6447 6.76679 19.345C6.76679 19.345 3.03636 22.5114 0.396484 19.3059V19.3044Z" fill="#2B2A29" fill-opacity="0.721569"/>
<path fill-rule="evenodd" clip-rule="evenodd" d="M9.53471 14.1967C9.53471 14.1967 12.1114 12.533 14.2399 14.6885L13.9526 15.1864C13.9526 15.1864 12.5747 13.2415 9.96341 14.5276L9.5332 14.1967H9.53471Z" fill="#2B2A29" fill-opacity="0.721569"/>
<path fill-rule="evenodd" clip-rule="evenodd" d="M19.2868 0.413086C19.2868 0.413086 19.1815 2.87848 17.9662 4.50904C16.7492 6.13959 13.1467 7.39861 14.1801 9.55414C14.1801 9.55414 15.6482 12.1624 18.6611 9.76623C18.6611 9.76623 20.0329 8.45156 20.8241 8.90432C21.6169 9.35709 20.6271 6.92479 19.3275 6.78339C19.3275 6.78339 22.4923 3.05296 19.2883 0.413086H19.2868Z" fill="#2B2A29" fill-opacity="0.721569"/>
<path fill-rule="evenodd" clip-rule="evenodd" d="M14.181 9.55424C14.181 9.55424 12.5174 12.1309 14.6729 14.2594L15.1708 13.9721C15.1708 13.9721 13.2259 12.5942 14.512 9.98294L14.181 9.55273V9.55424Z" fill="#2B2A29" fill-opacity="0.721569"/>
<path fill-rule="evenodd" clip-rule="evenodd" d="M20.8828 21.1053L22.9646 23.1856L23.2504 22.7464L21.2423 20.7383L20.8828 21.1053Z" fill="#2B2A29" fill-opacity="0.721569"/>
<path d="M50.2129 16.7875C47.9927 19.4138 45.3242 20.5179 43.4906 20.8052C41.2027 21.1647 38.9419 20.745 36.7232 20.0802C34.4323 19.3927 31.6284 19.2468 29.0788 19.8229C26.9097 20.3118 24.6339 21.437 22.9687 23.1848C18.608 27.7712 19.3045 32.4823 20.0446 36.8265C20.8237 41.4083 21.6556 45.6216 16.7639 50.256L16.457 49.9507C20.9892 45.6577 20.3018 41.3256 19.5557 36.9513C18.7825 32.4192 17.9597 27.7802 22.6393 22.8584C24.4519 20.9541 26.7353 19.8425 29.0683 19.3145C31.7428 18.7113 34.5421 18.9009 36.9323 19.6184C39.0697 20.2607 41.2884 20.6307 43.459 20.2908C45.592 19.9553 47.6979 18.9249 49.6608 16.7709L49.912 16.4941L50.2114 16.789L50.2129 16.7875Z" fill="#2B2A29" fill-opacity="0.721569"/>
<path fill-rule="evenodd" clip-rule="evenodd" d="M11.3426 49.3603C11.3426 49.3603 12.1383 48.166 13.2258 48.9963C14.3134 49.8266 15.067 49.3814 15.613 48.8353C16.1575 48.2908 16.3831 47.3793 15.6987 46.567C15.0143 45.7532 15.4851 44.8988 15.8898 44.607C15.8898 44.607 14.8293 43.6278 13.7688 45.0102C13.7688 45.0102 11.5516 44.5243 11.6163 47.1627C11.6163 47.1627 10.1272 48.5375 11.3426 49.3588V49.3603Z" fill="#2B2A29" fill-opacity="0.721569"/>
<path fill-rule="evenodd" clip-rule="evenodd" d="M4.70463 48.0244C4.70463 48.0244 6.00125 47.9687 6.85865 47.3294C7.71605 46.6886 8.3779 44.7948 9.51207 45.3379C9.51207 45.3379 10.8839 46.1095 9.62338 47.6934C9.62338 47.6934 8.93295 48.4139 9.16911 48.8306C9.40677 49.2473 8.1297 48.7268 8.05449 48.0424C8.05449 48.0424 6.09151 49.7076 4.70312 48.0229L4.70463 48.0244Z" fill="#2B2A29" fill-opacity="0.721569"/>
<path fill-rule="evenodd" clip-rule="evenodd" d="M9.50977 45.3381C9.50977 45.3381 10.8666 44.4626 11.9857 45.5968L11.8353 45.8585C11.8353 45.8585 11.1102 44.8357 9.7369 45.5125L9.50977 45.3381Z" fill="#2B2A29" fill-opacity="0.721569"/>
<path fill-rule="evenodd" clip-rule="evenodd" d="M14.6371 38.0904C14.6371 38.0904 14.583 39.387 13.9422 40.2444C13.3029 41.1018 11.4091 41.7636 11.9521 42.8978C11.9521 42.8978 12.7238 44.2696 14.3077 43.0091C14.3077 43.0091 15.0282 42.3187 15.4449 42.5564C15.8615 42.794 15.3411 41.5154 14.6567 41.4402C14.6567 41.4402 16.3218 39.4788 14.6356 38.0889L14.6371 38.0904Z" fill="#2B2A29" fill-opacity="0.721569"/>
<path fill-rule="evenodd" clip-rule="evenodd" d="M11.9497 42.8984C11.9497 42.8984 11.0743 44.2537 12.2069 45.3729L12.4687 45.2224C12.4687 45.2224 11.4458 44.4974 12.1227 43.1241L11.9482 42.8984H11.9497Z" fill="#2B2A29" fill-opacity="0.721569"/>
<path fill-rule="evenodd" clip-rule="evenodd" d="M15.4805 48.9694L16.7154 50.2059L16.911 50.0179L15.6685 48.7754L15.4805 48.9694Z" fill="#2B2A29" fill-opacity="0.721569"/>
<path fill-rule="evenodd" clip-rule="evenodd" d="M44.6058 16.0948C44.6058 16.0948 45.4 14.9005 46.489 15.7308C47.5766 16.5611 48.3302 16.1159 48.8747 15.5714C49.4207 15.0253 49.6449 14.1153 48.9604 13.303C48.276 12.4893 48.7468 11.6334 49.1515 11.3431C49.1515 11.3431 48.091 10.3638 47.0306 11.7477C47.0306 11.7477 44.8134 11.2603 44.878 13.9002C44.878 13.9002 43.3889 15.2765 44.6043 16.0963L44.6058 16.0948Z" fill="#2B2A29" fill-opacity="0.721569"/>
<path fill-rule="evenodd" clip-rule="evenodd" d="M37.9659 14.7577C37.9659 14.7577 39.2625 14.7035 40.1184 14.0628C40.9758 13.4235 41.6392 11.5282 42.7718 12.0712C42.7718 12.0712 44.1437 12.8444 42.8831 14.4268C42.8831 14.4268 42.1912 15.1473 42.4289 15.564C42.6665 15.9791 41.388 15.4602 41.3143 14.7757C41.3143 14.7757 39.3513 16.4394 37.9629 14.7547L37.9659 14.7577Z" fill="#2B2A29" fill-opacity="0.721569"/>
<path fill-rule="evenodd" clip-rule="evenodd" d="M42.7695 12.0734C42.7695 12.0734 44.1263 11.198 45.2455 12.3321L45.0935 12.5939C45.0935 12.5939 44.37 11.571 42.9967 12.2479L42.7695 12.0734Z" fill="#2B2A29" fill-opacity="0.721569"/>
<path fill-rule="evenodd" clip-rule="evenodd" d="M47.8983 4.82279C47.8983 4.82279 47.8442 6.12092 47.2034 6.97681C46.5641 7.83421 44.6688 8.49606 45.2118 9.63023C45.2118 9.63023 45.985 11.0021 47.5674 9.74154C47.5674 9.74154 48.2879 9.05111 48.7046 9.28878C49.1212 9.52644 48.6008 8.24787 47.9164 8.17266C47.9164 8.17266 49.5815 6.21117 47.8953 4.82129L47.8983 4.82279Z" fill="#2B2A29" fill-opacity="0.721569"/>
<path fill-rule="evenodd" clip-rule="evenodd" d="M45.2163 9.63184C45.2163 9.63184 44.3424 10.9871 45.475 12.1063L45.7368 11.9558C45.7368 11.9558 44.7139 11.2323 45.3908 9.85897L45.2163 9.63184Z" fill="#2B2A29" fill-opacity="0.721569"/>
<path fill-rule="evenodd" clip-rule="evenodd" d="M48.7422 15.7058L49.9786 16.9407L50.1727 16.7527L48.9317 15.5117L48.7422 15.7058Z" fill="#2B2A29" fill-opacity="0.721569"/>
<path d="M19.334 33.2142C19.334 33.2142 19.5476 38.5135 23.081 37.8366C26.6128 37.1597 24.6619 30.5592 23.1727 30.8014C21.6805 31.0436 22.0807 32.5117 22.1649 32.966" stroke="#2B2A29" stroke-opacity="0.721569" stroke-width="0.403127" stroke-miterlimit="22.9256"/>
<path fill-rule="evenodd" clip-rule="evenodd" d="M25.5948 29.5965C25.5948 29.5965 24.5765 29.3378 24.393 30.323C24.2095 31.3083 23.5837 31.4346 23.0181 31.406C22.4526 31.3775 21.8855 30.9924 21.8599 30.2162C21.8313 29.437 21.1559 29.2039 20.7949 29.2445C20.7949 29.2445 20.8912 28.1931 22.1457 28.4247C22.1457 28.4247 23.1114 27.0739 24.3719 28.5375C24.3719 28.5375 25.8551 28.5556 25.5978 29.5965H25.5948Z" fill="#2B2A29" fill-opacity="0.721569"/>
<path d="M33.2064 19.2939C33.2064 19.2939 38.5057 19.5075 37.8288 23.0409C37.1519 26.5728 30.5514 24.6218 30.7936 23.1327C31.0358 21.6405 32.5039 22.0406 32.9582 22.1249" stroke="#2B2A29" stroke-opacity="0.721569" stroke-width="0.403127" stroke-miterlimit="22.9256"/>
<path fill-rule="evenodd" clip-rule="evenodd" d="M29.5955 25.5519C29.5955 25.5519 29.3368 24.5335 30.322 24.3515C31.3073 24.1665 31.4336 23.5407 31.4051 22.9752C31.3765 22.4096 30.9914 21.8425 30.2152 21.8169C29.4361 21.7899 29.2029 21.113 29.2435 20.752C29.2435 20.752 28.1921 20.8482 28.4237 22.1027C28.4237 22.1027 27.073 23.0684 28.5365 24.329C28.5365 24.329 28.5546 25.8121 29.5955 25.5549V25.5519Z" fill="#2B2A29" fill-opacity="0.721569"/>
<path d="M16.8283 49.9131C16.2071 50.6953 13.5402 51.5903 14.1373 53.3682C14.7345 55.1462 17.1202 54.3911 17.3729 53.5533" stroke="#2B2A29" stroke-opacity="0.721569" stroke-width="0.401623" stroke-miterlimit="22.9256"/>
<path fill-rule="evenodd" clip-rule="evenodd" d="M19.8208 54.3299C19.8208 54.3299 19.329 53.5402 18.6085 54.0561C17.8879 54.5721 17.4081 54.2667 17.0651 53.9027C16.7237 53.5372 16.5958 52.9445 17.0561 52.4316C17.5164 51.9187 17.2291 51.3561 16.9719 51.159C16.9719 51.159 17.6789 50.5468 18.3377 51.4644C18.3377 51.4644 19.7832 51.1951 19.6885 52.9039C19.6885 52.9039 20.6256 53.8245 19.8208 54.3314V54.3299Z" fill="#2B2A29" fill-opacity="0.721569"/>
<path d="M49.748 16.9913C50.5317 16.3701 51.4252 13.7031 53.2032 14.3018C54.9812 14.899 54.2261 17.2846 53.3882 17.5373" stroke="#2B2A29" stroke-opacity="0.721569" stroke-width="0.401623" stroke-miterlimit="22.9256"/>
<path fill-rule="evenodd" clip-rule="evenodd" d="M54.1619 19.9888C54.1619 19.9888 53.3722 19.4969 53.8882 18.7764C54.4041 18.0559 54.1003 17.5761 53.7347 17.2331C53.3707 16.8917 52.7766 16.7638 52.2636 17.2241C51.7507 17.6844 51.1881 17.3971 50.9911 17.1398C50.9911 17.1398 50.3789 17.8468 51.2964 18.5057C51.2964 18.5057 51.0272 19.9512 52.7359 19.8564C52.7359 19.8564 53.6565 20.7936 54.1634 19.9888H54.1619Z" fill="#2B2A29" fill-opacity="0.721569"/>
<path fill-rule="evenodd" clip-rule="evenodd" d="M491.976 21.8477C491.976 21.8477 490.463 19.5749 488.394 21.1558C486.325 22.7367 484.894 21.8883 483.856 20.8504C482.817 19.8125 482.391 18.0827 483.692 16.5364C484.995 14.99 484.098 13.3625 483.33 12.8104C483.33 12.8104 485.345 10.9482 487.361 13.5791C487.361 13.5791 491.577 12.6555 491.454 17.672C491.454 17.672 494.285 20.2878 491.976 21.8477Z" fill="#2B2A29" fill-opacity="0.721569"/>
<path fill-rule="evenodd" clip-rule="evenodd" d="M504.605 19.3044C504.605 19.3044 502.14 19.1991 500.509 17.9837C498.879 16.7668 497.62 13.1643 495.464 14.1976C495.464 14.1976 492.858 15.6658 495.252 18.6787C495.252 18.6787 496.567 20.0505 496.114 20.8417C495.661 21.6344 498.094 20.6447 498.235 19.345C498.235 19.345 501.965 22.5114 504.605 19.3059V19.3044Z" fill="#2B2A29" fill-opacity="0.721569"/>
<path fill-rule="evenodd" clip-rule="evenodd" d="M495.465 14.1967C495.465 14.1967 492.888 12.533 490.76 14.6885L491.047 15.1864C491.047 15.1864 492.425 13.2415 495.036 14.5276L495.466 14.1967H495.465Z" fill="#2B2A29" fill-opacity="0.721569"/>
<path fill-rule="evenodd" clip-rule="evenodd" d="M485.711 0.413086C485.711 0.413086 485.817 2.87848 487.032 4.50904C488.249 6.13959 491.851 7.39861 490.818 9.55414C490.818 9.55414 489.35 12.1624 486.337 9.76623C486.337 9.76623 484.965 8.45156 484.174 8.90432C483.381 9.35709 484.371 6.92479 485.671 6.78339C485.671 6.78339 482.506 3.05296 485.71 0.413086H485.711Z" fill="#2B2A29" fill-opacity="0.721569"/>
<path fill-rule="evenodd" clip-rule="evenodd" d="M490.82 9.55424C490.82 9.55424 492.484 12.1309 490.328 14.2594L489.83 13.9721C489.83 13.9721 491.775 12.5942 490.489 9.98294L490.82 9.55273V9.55424Z" fill="#2B2A29" fill-opacity="0.721569"/>
<path fill-rule="evenodd" clip-rule="evenodd" d="M484.119 21.1053L482.036 23.1856L481.75 22.7464L483.76 20.7383L484.119 21.1053Z" fill="#2B2A29" fill-opacity="0.721569"/>
<path d="M454.791 16.7875C457.011 19.4138 459.68 20.5179 461.513 20.8052C463.801 21.1647 466.062 20.745 468.281 20.0802C470.572 19.3927 473.375 19.2468 475.925 19.8229C478.094 20.3118 480.37 21.437 482.035 23.1848C486.396 27.7712 485.699 32.4823 484.959 36.8265C484.18 41.4083 483.348 45.6216 488.24 50.256L488.547 49.9507C484.015 45.6577 484.702 41.3256 485.448 36.9513C486.221 32.4192 487.044 27.7802 482.365 22.8584C480.552 20.9541 478.269 19.8425 475.936 19.3145C473.261 18.7113 470.462 18.9009 468.072 19.6184C465.934 20.2607 463.715 20.6307 461.545 20.2908C459.412 19.9553 457.306 18.9249 455.343 16.7709L455.092 16.4941L454.793 16.789L454.791 16.7875Z" fill="#2B2A29" fill-opacity="0.721569"/>
<path fill-rule="evenodd" clip-rule="evenodd" d="M493.66 49.3603C493.66 49.3603 492.865 48.166 491.777 48.9963C490.689 49.8266 489.936 49.3814 489.39 48.8353C488.845 48.2908 488.62 47.3793 489.304 46.567C489.989 45.7532 489.518 44.8988 489.113 44.607C489.113 44.607 490.174 43.6278 491.234 45.0102C491.234 45.0102 493.451 44.5243 493.387 47.1627C493.387 47.1627 494.876 48.5375 493.66 49.3588V49.3603Z" fill="#2B2A29" fill-opacity="0.721569"/>
<path fill-rule="evenodd" clip-rule="evenodd" d="M500.297 48.0244C500.297 48.0244 499.001 47.9687 498.143 47.3294C497.286 46.6886 496.624 44.7948 495.49 45.3379C495.49 45.3379 494.118 46.1095 495.378 47.6934C495.378 47.6934 496.069 48.4139 495.833 48.8306C495.595 49.2473 496.872 48.7268 496.947 48.0424C496.947 48.0424 498.91 49.7076 500.299 48.0229L500.297 48.0244Z" fill="#2B2A29" fill-opacity="0.721569"/>
<path fill-rule="evenodd" clip-rule="evenodd" d="M495.492 45.3381C495.492 45.3381 494.135 44.4626 493.016 45.5968L493.166 45.8585C493.166 45.8585 493.891 44.8357 495.264 45.5125L495.492 45.3381Z" fill="#2B2A29" fill-opacity="0.721569"/>
<path fill-rule="evenodd" clip-rule="evenodd" d="M490.365 38.0904C490.365 38.0904 490.419 39.387 491.06 40.2444C491.699 41.1018 493.593 41.7636 493.05 42.8978C493.05 42.8978 492.278 44.2696 490.694 43.0091C490.694 43.0091 489.974 42.3187 489.557 42.5564C489.14 42.794 489.661 41.5154 490.345 41.4402C490.345 41.4402 488.68 39.4788 490.366 38.0889L490.365 38.0904Z" fill="#2B2A29" fill-opacity="0.721569"/>
<path fill-rule="evenodd" clip-rule="evenodd" d="M493.05 42.8984C493.05 42.8984 493.926 44.2537 492.793 45.3729L492.531 45.2224C492.531 45.2224 493.554 44.4974 492.877 43.1241L493.052 42.8984H493.05Z" fill="#2B2A29" fill-opacity="0.721569"/>
<path fill-rule="evenodd" clip-rule="evenodd" d="M489.524 48.9694L488.288 50.2059L488.094 50.0179L489.335 48.7754L489.524 48.9694Z" fill="#2B2A29" fill-opacity="0.721569"/>
<path fill-rule="evenodd" clip-rule="evenodd" d="M460.39 16.0948C460.39 16.0948 459.596 14.9005 458.507 15.7308C457.419 16.5611 456.665 16.1159 456.121 15.5714C455.575 15.0253 455.351 14.1153 456.035 13.303C456.72 12.4893 456.249 11.6334 455.844 11.3431C455.844 11.3431 456.905 10.3638 457.965 11.7477C457.965 11.7477 460.182 11.2603 460.118 13.9002C460.118 13.9002 461.607 15.2765 460.391 16.0963L460.39 16.0948Z" fill="#2B2A29" fill-opacity="0.721569"/>
<path fill-rule="evenodd" clip-rule="evenodd" d="M467.032 14.7577C467.032 14.7577 465.735 14.7035 464.88 14.0628C464.022 13.4235 463.359 11.5282 462.226 12.0712C462.226 12.0712 460.854 12.8444 462.115 14.4268C462.115 14.4268 462.807 15.1473 462.569 15.564C462.331 15.9791 463.61 15.4602 463.684 14.7757C463.684 14.7757 465.647 16.4394 467.035 14.7547L467.032 14.7577Z" fill="#2B2A29" fill-opacity="0.721569"/>
<path fill-rule="evenodd" clip-rule="evenodd" d="M462.224 12.0734C462.224 12.0734 460.867 11.198 459.748 12.3321L459.9 12.5939C459.9 12.5939 460.623 11.571 461.997 12.2479L462.224 12.0734Z" fill="#2B2A29" fill-opacity="0.721569"/>
<path fill-rule="evenodd" clip-rule="evenodd" d="M457.102 4.82279C457.102 4.82279 457.156 6.12092 457.797 6.97681C458.436 7.83421 460.331 8.49606 459.788 9.63023C459.788 9.63023 459.015 11.0021 457.433 9.74154C457.433 9.74154 456.712 9.05111 456.295 9.28878C455.879 9.52644 456.399 8.24787 457.084 8.17266C457.084 8.17266 455.418 6.21117 457.105 4.82129L457.102 4.82279Z" fill="#2B2A29" fill-opacity="0.721569"/>
<path fill-rule="evenodd" clip-rule="evenodd" d="M459.784 9.63184C459.784 9.63184 460.658 10.9871 459.525 12.1063L459.264 11.9558C459.264 11.9558 460.287 11.2323 459.61 9.85897L459.784 9.63184Z" fill="#2B2A29" fill-opacity="0.721569"/>
<path fill-rule="evenodd" clip-rule="evenodd" d="M456.257 15.7058L455.022 16.9407L454.826 16.7527L456.069 15.5117L456.257 15.7058Z" fill="#2B2A29" fill-opacity="0.721569"/>
<path d="M485.664 33.2142C485.664 33.2142 485.45 38.5135 481.917 37.8366C478.385 37.1597 480.336 30.5592 481.825 30.8014C483.317 31.0436 482.917 32.5117 482.833 32.966" stroke="#2B2A29" stroke-opacity="0.721569" stroke-width="0.403127" stroke-miterlimit="22.9256"/>
<path fill-rule="evenodd" clip-rule="evenodd" d="M479.406 29.5965C479.406 29.5965 480.424 29.3378 480.608 30.323C480.791 31.3083 481.417 31.4346 481.983 31.406C482.548 31.3775 483.115 30.9924 483.141 30.2162C483.17 29.437 483.845 29.2039 484.206 29.2445C484.206 29.2445 484.11 28.1931 482.855 28.4247C482.855 28.4247 481.889 27.0739 480.629 28.5375C480.629 28.5375 479.146 28.5556 479.403 29.5965H479.406Z" fill="#2B2A29" fill-opacity="0.721569"/>
<path d="M471.792 19.2939C471.792 19.2939 466.492 19.5075 467.169 23.0409C467.846 26.5728 474.446 24.6218 474.204 23.1327C473.962 21.6405 472.494 22.0406 472.04 22.1249" stroke="#2B2A29" stroke-opacity="0.721569" stroke-width="0.403127" stroke-miterlimit="22.9256"/>
<path fill-rule="evenodd" clip-rule="evenodd" d="M475.409 25.5519C475.409 25.5519 475.668 24.5335 474.682 24.3515C473.697 24.1665 473.571 23.5407 473.599 22.9752C473.628 22.4096 474.013 21.8425 474.789 21.8169C475.568 21.7899 475.801 21.113 475.761 20.752C475.761 20.752 476.812 20.8482 476.581 22.1027C476.581 22.1027 477.931 23.0684 476.468 24.329C476.468 24.329 476.45 25.8121 475.409 25.5549V25.5519Z" fill="#2B2A29" fill-opacity="0.721569"/>
<path d="M488.173 49.9131C488.795 50.6953 491.462 51.5903 490.864 53.3682C490.267 55.1462 487.882 54.3911 487.629 53.5533" stroke="#2B2A29" stroke-opacity="0.721569" stroke-width="0.401623" stroke-miterlimit="22.9256"/>
<path fill-rule="evenodd" clip-rule="evenodd" d="M485.176 54.3299C485.176 54.3299 485.668 53.5402 486.388 54.0561C487.109 54.5721 487.589 54.2667 487.932 53.9027C488.273 53.5372 488.401 52.9445 487.941 52.4316C487.48 51.9187 487.768 51.3561 488.025 51.159C488.025 51.159 487.318 50.5468 486.659 51.4644C486.659 51.4644 485.214 51.1951 485.308 52.9039C485.308 52.9039 484.371 53.8245 485.176 54.3314V54.3299Z" fill="#2B2A29" fill-opacity="0.721569"/>
<path d="M455.253 16.9913C454.469 16.3701 453.576 13.7031 451.798 14.3018C450.02 14.899 450.775 17.2846 451.613 17.5373" stroke="#2B2A29" stroke-opacity="0.721569" stroke-width="0.401623" stroke-miterlimit="22.9256"/>
<path fill-rule="evenodd" clip-rule="evenodd" d="M450.834 19.9888C450.834 19.9888 451.623 19.4969 451.107 18.7764C450.591 18.0559 450.895 17.5761 451.261 17.2331C451.625 16.8917 452.219 16.7638 452.732 17.2241C453.245 17.6844 453.807 17.3971 454.004 17.1398C454.004 17.1398 454.617 17.8468 453.699 18.5057C453.699 18.5057 453.968 19.9512 452.26 19.8564C452.26 19.8564 451.339 20.7936 450.832 19.9888H450.834Z" fill="#2B2A29" fill-opacity="0.721569"/>
<path fill-rule="evenodd" clip-rule="evenodd" d="M13.0197 311.238C13.0197 311.238 14.5329 313.511 16.6012 311.93C18.671 310.349 20.1015 311.198 21.1394 312.235C22.1788 313.273 22.6045 315.003 21.3033 316.549C20.0007 318.096 20.8972 319.723 21.6659 320.275C21.6659 320.275 19.6502 322.138 17.6346 319.507C17.6346 319.507 13.4183 320.43 13.5416 315.414C13.5416 315.414 10.7107 312.798 13.0197 311.238Z" fill="#2B2A29" fill-opacity="0.721569"/>
<path fill-rule="evenodd" clip-rule="evenodd" d="M0.396484 313.778C0.396484 313.778 2.86188 313.883 4.49243 315.098C6.12299 316.315 7.38201 319.918 9.53754 318.884C9.53754 318.884 12.1443 317.416 9.74963 314.403C9.74963 314.403 8.43495 313.032 8.88772 312.24C9.34048 311.448 6.90819 312.437 6.76679 313.737C6.76679 313.737 3.03636 310.571 0.396484 313.776V313.778Z" fill="#2B2A29" fill-opacity="0.721569"/>
<path fill-rule="evenodd" clip-rule="evenodd" d="M9.53471 318.884C9.53471 318.884 12.1114 320.548 14.2399 318.392L13.9526 317.895C13.9526 317.895 12.5747 319.839 9.96341 318.553L9.5332 318.884H9.53471Z" fill="#2B2A29" fill-opacity="0.721569"/>
<path fill-rule="evenodd" clip-rule="evenodd" d="M19.2868 332.67C19.2868 332.67 19.1815 330.204 17.9662 328.574C16.7492 326.943 13.1467 325.684 14.1801 323.528C14.1801 323.528 15.6482 320.92 18.6611 323.316C18.6611 323.316 20.0329 324.631 20.8241 324.178C21.6169 323.725 20.6271 326.158 19.3275 326.299C19.3275 326.299 22.4923 330.03 19.2883 332.67H19.2868Z" fill="#2B2A29" fill-opacity="0.721569"/>
<path fill-rule="evenodd" clip-rule="evenodd" d="M14.181 323.529C14.181 323.529 12.5174 320.953 14.6729 318.824L15.1708 319.112C15.1708 319.112 13.2259 320.489 14.512 323.101L14.181 323.531V323.529Z" fill="#2B2A29" fill-opacity="0.721569"/>
<path fill-rule="evenodd" clip-rule="evenodd" d="M20.8828 311.981L22.9646 309.9L23.2504 310.34L21.2423 312.348L20.8828 311.981Z" fill="#2B2A29" fill-opacity="0.721569"/>
<path d="M50.2129 316.297C47.9927 313.67 45.3242 312.566 43.4906 312.279C41.2027 311.919 38.9419 312.339 36.7232 313.004C34.4323 313.691 31.6284 313.837 29.0788 313.261C26.9097 312.772 24.6339 311.647 22.9687 309.899C18.608 305.313 19.3045 300.602 20.0446 296.258C20.8237 291.676 21.6556 287.463 16.7639 282.828L16.457 283.133C20.9892 287.426 20.3018 291.759 19.5557 296.133C18.7825 300.665 17.9597 305.304 22.6393 310.226C24.4519 312.13 26.7353 313.242 29.0683 313.77C31.7428 314.373 34.5421 314.183 36.9323 313.466C39.0697 312.823 41.2884 312.453 43.459 312.793C45.592 313.129 47.6979 314.159 49.6608 316.313L49.912 316.59L50.2114 316.295L50.2129 316.297Z" fill="#2B2A29" fill-opacity="0.721569"/>
<path fill-rule="evenodd" clip-rule="evenodd" d="M11.3426 283.722C11.3426 283.722 12.1383 284.917 13.2258 284.086C14.3134 283.256 15.067 283.701 15.613 284.247C16.1575 284.792 16.3831 285.703 15.6987 286.516C15.0143 287.329 15.4851 288.184 15.8898 288.476C15.8898 288.476 14.8293 289.455 13.7688 288.072C13.7688 288.072 11.5516 288.558 11.6163 285.92C11.6163 285.92 10.1272 284.545 11.3426 283.724V283.722Z" fill="#2B2A29" fill-opacity="0.721569"/>
<path fill-rule="evenodd" clip-rule="evenodd" d="M4.70463 285.059C4.70463 285.059 6.00125 285.114 6.85865 285.754C7.71605 286.394 8.3779 288.288 9.51207 287.745C9.51207 287.745 10.8839 286.974 9.62338 285.39C9.62338 285.39 8.93295 284.669 9.16911 284.252C9.40677 283.836 8.1297 284.356 8.05449 285.041C8.05449 285.041 6.09151 283.375 4.70312 285.06L4.70463 285.059Z" fill="#2B2A29" fill-opacity="0.721569"/>
<path fill-rule="evenodd" clip-rule="evenodd" d="M9.50977 287.745C9.50977 287.745 10.8666 288.621 11.9857 287.486L11.8353 287.225C11.8353 287.225 11.1102 288.247 9.7369 287.571L9.50977 287.745Z" fill="#2B2A29" fill-opacity="0.721569"/>
<path fill-rule="evenodd" clip-rule="evenodd" d="M14.6371 294.994C14.6371 294.994 14.583 293.698 13.9422 292.84C13.3029 291.983 11.4091 291.321 11.9521 290.187C11.9521 290.187 12.7238 288.815 14.3077 290.076C14.3077 290.076 15.0282 290.766 15.4449 290.528C15.8615 290.291 15.3411 291.569 14.6567 291.645C14.6567 291.645 16.3218 293.606 14.6356 294.996L14.6371 294.994Z" fill="#2B2A29" fill-opacity="0.721569"/>
<path fill-rule="evenodd" clip-rule="evenodd" d="M11.9497 290.184C11.9497 290.184 11.0743 288.829 12.2069 287.71L12.4687 287.86C12.4687 287.86 11.4458 288.585 12.1227 289.959L11.9482 290.184H11.9497Z" fill="#2B2A29" fill-opacity="0.721569"/>
<path fill-rule="evenodd" clip-rule="evenodd" d="M15.4805 284.112L16.7154 282.876L16.911 283.064L15.6685 284.305L15.4805 284.112Z" fill="#2B2A29" fill-opacity="0.721569"/>
<path fill-rule="evenodd" clip-rule="evenodd" d="M44.6058 316.986C44.6058 316.986 45.4 318.18 46.489 317.35C47.5766 316.52 48.3302 316.965 48.8747 317.509C49.4207 318.056 49.6449 318.966 48.9604 319.778C48.276 320.592 48.7468 321.447 49.1515 321.738C49.1515 321.738 48.091 322.717 47.0306 321.333C47.0306 321.333 44.8134 321.821 44.878 319.181C44.878 319.181 43.3889 317.804 44.6043 316.985L44.6058 316.986Z" fill="#2B2A29" fill-opacity="0.721569"/>
<path fill-rule="evenodd" clip-rule="evenodd" d="M37.9659 318.325C37.9659 318.325 39.2625 318.379 40.1184 319.02C40.9758 319.659 41.6392 321.554 42.7718 321.011C42.7718 321.011 44.1437 320.238 42.8831 318.656C42.8831 318.656 42.1912 317.935 42.4289 317.518C42.6665 317.103 41.388 317.622 41.3143 318.307C41.3143 318.307 39.3513 316.643 37.9629 318.328L37.9659 318.325Z" fill="#2B2A29" fill-opacity="0.721569"/>
<path fill-rule="evenodd" clip-rule="evenodd" d="M42.7695 321.009C42.7695 321.009 44.1263 321.884 45.2455 320.75L45.0935 320.488C45.0935 320.488 44.37 321.511 42.9967 320.834L42.7695 321.009Z" fill="#2B2A29" fill-opacity="0.721569"/>
<path fill-rule="evenodd" clip-rule="evenodd" d="M47.8983 328.258C47.8983 328.258 47.8442 326.96 47.2034 326.104C46.5641 325.247 44.6688 324.585 45.2118 323.451C45.2118 323.451 45.985 322.079 47.5674 323.339C47.5674 323.339 48.2879 324.03 48.7046 323.792C49.1212 323.555 48.6008 324.833 47.9164 324.908C47.9164 324.908 49.5815 326.87 47.8953 328.26L47.8983 328.258Z" fill="#2B2A29" fill-opacity="0.721569"/>
<path fill-rule="evenodd" clip-rule="evenodd" d="M45.2163 323.451C45.2163 323.451 44.3424 322.096 45.475 320.977L45.7368 321.127C45.7368 321.127 44.7139 321.85 45.3908 323.224L45.2163 323.451Z" fill="#2B2A29" fill-opacity="0.721569"/>
<path fill-rule="evenodd" clip-rule="evenodd" d="M48.7422 317.378L49.9786 316.143L50.1727 316.331L48.9317 317.572L48.7422 317.378Z" fill="#2B2A29" fill-opacity="0.721569"/>
<path d="M19.334 299.871C19.334 299.871 19.5476 294.571 23.081 295.248C26.6128 295.925 24.6619 302.526 23.1727 302.283C21.6805 302.041 22.0807 300.573 22.1649 300.119" stroke="#2B2A29" stroke-opacity="0.721569" stroke-width="0.403127" stroke-miterlimit="22.9256"/>
<path fill-rule="evenodd" clip-rule="evenodd" d="M25.5948 303.484C25.5948 303.484 24.5765 303.743 24.393 302.757C24.2095 301.772 23.5837 301.646 23.0181 301.674C22.4526 301.703 21.8855 302.088 21.8599 302.864C21.8313 303.643 21.1559 303.877 20.7949 303.836C20.7949 303.836 20.8912 304.887 22.1457 304.656C22.1457 304.656 23.1114 306.007 24.3719 304.543C24.3719 304.543 25.8551 304.525 25.5978 303.484H25.5948Z" fill="#2B2A29" fill-opacity="0.721569"/>
<path d="M33.2064 313.791C33.2064 313.791 38.5057 313.577 37.8288 310.044C37.1519 306.512 30.5514 308.463 30.7936 309.952C31.0358 311.444 32.5039 311.044 32.9582 310.96" stroke="#2B2A29" stroke-opacity="0.721569" stroke-width="0.403127" stroke-miterlimit="22.9256"/>
<path fill-rule="evenodd" clip-rule="evenodd" d="M29.5955 307.531C29.5955 307.531 29.3368 308.549 30.322 308.731C31.3073 308.916 31.4336 309.542 31.4051 310.108C31.3765 310.673 30.9914 311.24 30.2152 311.266C29.4361 311.293 29.2029 311.97 29.2435 312.331C29.2435 312.331 28.1921 312.235 28.4237 310.98C28.4237 310.98 27.073 310.014 28.5365 308.754C28.5365 308.754 28.5546 307.271 29.5955 307.528V307.531Z" fill="#2B2A29" fill-opacity="0.721569"/>
<path d="M16.8283 283.17C16.2071 282.388 13.5402 281.493 14.1373 279.715C14.7345 277.937 17.1202 278.692 17.3729 279.53" stroke="#2B2A29" stroke-opacity="0.721569" stroke-width="0.401623" stroke-miterlimit="22.9256"/>
<path fill-rule="evenodd" clip-rule="evenodd" d="M19.8208 278.752C19.8208 278.752 19.329 279.542 18.6085 279.026C17.8879 278.51 17.4081 278.816 17.0651 279.18C16.7237 279.545 16.5958 280.138 17.0561 280.651C17.5164 281.164 17.2291 281.726 16.9719 281.923C16.9719 281.923 17.6789 282.536 18.3377 281.618C18.3377 281.618 19.7832 281.887 19.6885 280.178C19.6885 280.178 20.6256 279.258 19.8208 278.751V278.752Z" fill="#2B2A29" fill-opacity="0.721569"/>
<path d="M49.748 316.092C50.5317 316.713 51.4252 319.38 53.2032 318.781C54.9812 318.184 54.2261 315.799 53.3882 315.546" stroke="#2B2A29" stroke-opacity="0.721569" stroke-width="0.401623" stroke-miterlimit="22.9256"/>
<path fill-rule="evenodd" clip-rule="evenodd" d="M54.1619 313.094C54.1619 313.094 53.3722 313.586 53.8882 314.306C54.4041 315.027 54.1003 315.507 53.7347 315.85C53.3707 316.191 52.7766 316.319 52.2636 315.859C51.7507 315.398 51.1881 315.686 50.9911 315.943C50.9911 315.943 50.3789 315.236 51.2964 314.577C51.2964 314.577 51.0272 313.132 52.7359 313.226C52.7359 313.226 53.6565 312.289 54.1634 313.094H54.1619Z" fill="#2B2A29" fill-opacity="0.721569"/>
<path fill-rule="evenodd" clip-rule="evenodd" d="M491.976 311.238C491.976 311.238 490.463 313.511 488.394 311.93C486.325 310.349 484.894 311.198 483.856 312.235C482.817 313.273 482.391 315.003 483.692 316.549C484.995 318.096 484.098 319.723 483.33 320.275C483.33 320.275 485.345 322.138 487.361 319.507C487.361 319.507 491.577 320.43 491.454 315.414C491.454 315.414 494.285 312.798 491.976 311.238Z" fill="#2B2A29" fill-opacity="0.721569"/>
<path fill-rule="evenodd" clip-rule="evenodd" d="M504.605 313.778C504.605 313.778 502.14 313.883 500.509 315.098C498.879 316.315 497.62 319.918 495.464 318.884C495.464 318.884 492.858 317.416 495.252 314.403C495.252 314.403 496.567 313.032 496.114 312.24C495.661 311.448 498.094 312.437 498.235 313.737C498.235 313.737 501.965 310.571 504.605 313.776V313.778Z" fill="#2B2A29" fill-opacity="0.721569"/>
<path fill-rule="evenodd" clip-rule="evenodd" d="M495.465 318.884C495.465 318.884 492.888 320.548 490.76 318.392L491.047 317.895C491.047 317.895 492.425 319.839 495.036 318.553L495.466 318.884H495.465Z" fill="#2B2A29" fill-opacity="0.721569"/>
<path fill-rule="evenodd" clip-rule="evenodd" d="M485.711 332.67C485.711 332.67 485.817 330.204 487.032 328.574C488.249 326.943 491.851 325.684 490.818 323.528C490.818 323.528 489.35 320.92 486.337 323.316C486.337 323.316 484.965 324.631 484.174 324.178C483.381 323.725 484.371 326.158 485.671 326.299C485.671 326.299 482.506 330.03 485.71 332.67H485.711Z" fill="#2B2A29" fill-opacity="0.721569"/>
<path fill-rule="evenodd" clip-rule="evenodd" d="M490.82 323.529C490.82 323.529 492.484 320.953 490.328 318.824L489.83 319.112C489.83 319.112 491.775 320.489 490.489 323.101L490.82 323.531V323.529Z" fill="#2B2A29" fill-opacity="0.721569"/>
<path fill-rule="evenodd" clip-rule="evenodd" d="M484.119 311.981L482.036 309.9L481.75 310.34L483.76 312.348L484.119 311.981Z" fill="#2B2A29" fill-opacity="0.721569"/>
<path d="M454.791 316.297C457.011 313.67 459.68 312.566 461.513 312.279C463.801 311.919 466.062 312.339 468.281 313.004C470.572 313.691 473.375 313.837 475.925 313.261C478.094 312.772 480.37 311.647 482.035 309.899C486.396 305.313 485.699 300.602 484.959 296.258C484.18 291.676 483.348 287.463 488.24 282.828L488.547 283.133C484.015 287.426 484.702 291.759 485.448 296.133C486.221 300.665 487.044 305.304 482.365 310.226C480.552 312.13 478.269 313.242 475.936 313.77C473.261 314.373 470.462 314.183 468.072 313.466C465.934 312.823 463.715 312.453 461.545 312.793C459.412 313.129 457.306 314.159 455.343 316.313L455.092 316.59L454.793 316.295L454.791 316.297Z" fill="#2B2A29" fill-opacity="0.721569"/>
<path fill-rule="evenodd" clip-rule="evenodd" d="M493.66 283.722C493.66 283.722 492.865 284.917 491.777 284.086C490.689 283.256 489.936 283.701 489.39 284.247C488.845 284.792 488.62 285.703 489.304 286.516C489.989 287.329 489.518 288.184 489.113 288.476C489.113 288.476 490.174 289.455 491.234 288.072C491.234 288.072 493.451 288.558 493.387 285.92C493.387 285.92 494.876 284.545 493.66 283.724V283.722Z" fill="#2B2A29" fill-opacity="0.721569"/>
<path fill-rule="evenodd" clip-rule="evenodd" d="M500.297 285.059C500.297 285.059 499.001 285.114 498.143 285.754C497.286 286.394 496.624 288.288 495.49 287.745C495.49 287.745 494.118 286.974 495.378 285.39C495.378 285.39 496.069 284.669 495.833 284.252C495.595 283.836 496.872 284.356 496.947 285.041C496.947 285.041 498.91 283.375 500.299 285.06L500.297 285.059Z" fill="#2B2A29" fill-opacity="0.721569"/>
<path fill-rule="evenodd" clip-rule="evenodd" d="M495.492 287.745C495.492 287.745 494.135 288.621 493.016 287.486L493.166 287.225C493.166 287.225 493.891 288.247 495.264 287.571L495.492 287.745Z" fill="#2B2A29" fill-opacity="0.721569"/>
<path fill-rule="evenodd" clip-rule="evenodd" d="M490.365 294.994C490.365 294.994 490.419 293.698 491.06 292.84C491.699 291.983 493.593 291.321 493.05 290.187C493.05 290.187 492.278 288.815 490.694 290.076C490.694 290.076 489.974 290.766 489.557 290.528C489.14 290.291 489.661 291.569 490.345 291.645C490.345 291.645 488.68 293.606 490.366 294.996L490.365 294.994Z" fill="#2B2A29" fill-opacity="0.721569"/>
<path fill-rule="evenodd" clip-rule="evenodd" d="M493.05 290.184C493.05 290.184 493.926 288.829 492.793 287.71L492.531 287.86C492.531 287.86 493.554 288.585 492.877 289.959L493.052 290.184H493.05Z" fill="#2B2A29" fill-opacity="0.721569"/>
<path fill-rule="evenodd" clip-rule="evenodd" d="M489.524 284.112L488.288 282.876L488.094 283.064L489.335 284.305L489.524 284.112Z" fill="#2B2A29" fill-opacity="0.721569"/>
<path fill-rule="evenodd" clip-rule="evenodd" d="M460.39 316.986C460.39 316.986 459.596 318.18 458.507 317.35C457.419 316.52 456.665 316.965 456.121 317.509C455.575 318.056 455.351 318.966 456.035 319.778C456.72 320.592 456.249 321.447 455.844 321.738C455.844 321.738 456.905 322.717 457.965 321.333C457.965 321.333 460.182 321.821 460.118 319.181C460.118 319.181 461.607 317.804 460.391 316.985L460.39 316.986Z" fill="#2B2A29" fill-opacity="0.721569"/>
<path fill-rule="evenodd" clip-rule="evenodd" d="M467.032 318.325C467.032 318.325 465.735 318.379 464.88 319.02C464.022 319.659 463.359 321.554 462.226 321.011C462.226 321.011 460.854 320.238 462.115 318.656C462.115 318.656 462.807 317.935 462.569 317.518C462.331 317.103 463.61 317.622 463.684 318.307C463.684 318.307 465.647 316.643 467.035 318.328L467.032 318.325Z" fill="#2B2A29" fill-opacity="0.721569"/>
<path fill-rule="evenodd" clip-rule="evenodd" d="M462.224 321.009C462.224 321.009 460.867 321.884 459.748 320.75L459.9 320.488C459.9 320.488 460.623 321.511 461.997 320.834L462.224 321.009Z" fill="#2B2A29" fill-opacity="0.721569"/>
<path fill-rule="evenodd" clip-rule="evenodd" d="M457.102 328.258C457.102 328.258 457.156 326.96 457.797 326.104C458.436 325.247 460.331 324.585 459.788 323.451C459.788 323.451 459.015 322.079 457.433 323.339C457.433 323.339 456.712 324.03 456.295 323.792C455.879 323.555 456.399 324.833 457.084 324.908C457.084 324.908 455.418 326.87 457.105 328.26L457.102 328.258Z" fill="#2B2A29" fill-opacity="0.721569"/>
<path fill-rule="evenodd" clip-rule="evenodd" d="M459.784 323.451C459.784 323.451 460.658 322.096 459.525 320.977L459.264 321.127C459.264 321.127 460.287 321.85 459.61 323.224L459.784 323.451Z" fill="#2B2A29" fill-opacity="0.721569"/>
<path fill-rule="evenodd" clip-rule="evenodd" d="M456.257 317.378L455.022 316.143L454.826 316.331L456.069 317.572L456.257 317.378Z" fill="#2B2A29" fill-opacity="0.721569"/>
<path d="M485.664 299.871C485.664 299.871 485.45 294.571 481.917 295.248C478.385 295.925 480.336 302.526 481.825 302.283C483.317 302.041 482.917 300.573 482.833 300.119" stroke="#2B2A29" stroke-opacity="0.721569" stroke-width="0.403127" stroke-miterlimit="22.9256"/>
<path fill-rule="evenodd" clip-rule="evenodd" d="M479.406 303.484C479.406 303.484 480.424 303.743 480.608 302.757C480.791 301.772 481.417 301.646 481.983 301.674C482.548 301.703 483.115 302.088 483.141 302.864C483.17 303.643 483.845 303.877 484.206 303.836C484.206 303.836 484.11 304.887 482.855 304.656C482.855 304.656 481.889 306.007 480.629 304.543C480.629 304.543 479.146 304.525 479.403 303.484H479.406Z" fill="#2B2A29" fill-opacity="0.721569"/>
<path d="M471.792 313.791C471.792 313.791 466.492 313.577 467.169 310.044C467.846 306.512 474.446 308.463 474.204 309.952C473.962 311.444 472.494 311.044 472.04 310.96" stroke="#2B2A29" stroke-opacity="0.721569" stroke-width="0.403127" stroke-miterlimit="22.9256"/>
<path fill-rule="evenodd" clip-rule="evenodd" d="M475.409 307.531C475.409 307.531 475.668 308.549 474.682 308.731C473.697 308.916 473.571 309.542 473.599 310.108C473.628 310.673 474.013 311.24 474.789 311.266C475.568 311.293 475.801 311.97 475.761 312.331C475.761 312.331 476.812 312.235 476.581 310.98C476.581 310.98 477.931 310.014 476.468 308.754C476.468 308.754 476.45 307.271 475.409 307.528V307.531Z" fill="#2B2A29" fill-opacity="0.721569"/>
<path d="M488.173 283.17C488.795 282.388 491.462 281.493 490.864 279.715C490.267 277.937 487.882 278.692 487.629 279.53" stroke="#2B2A29" stroke-opacity="0.721569" stroke-width="0.401623" stroke-miterlimit="22.9256"/>
<path fill-rule="evenodd" clip-rule="evenodd" d="M485.176 278.752C485.176 278.752 485.668 279.542 486.388 279.026C487.109 278.51 487.589 278.816 487.932 279.18C488.273 279.545 488.401 280.138 487.941 280.651C487.48 281.164 487.768 281.726 488.025 281.923C488.025 281.923 487.318 282.536 486.659 281.618C486.659 281.618 485.214 281.887 485.308 280.178C485.308 280.178 484.371 279.258 485.176 278.751V278.752Z" fill="#2B2A29" fill-opacity="0.721569"/>
<path d="M455.253 316.092C454.469 316.713 453.576 319.38 451.798 318.781C450.02 318.184 450.775 315.799 451.613 315.546" stroke="#2B2A29" stroke-opacity="0.721569" stroke-width="0.401623" stroke-miterlimit="22.9256"/>
<path fill-rule="evenodd" clip-rule="evenodd" d="M450.834 313.094C450.834 313.094 451.623 313.586 451.107 314.306C450.591 315.027 450.895 315.507 451.261 315.85C451.625 316.191 452.219 316.319 452.732 315.859C453.245 315.398 453.807 315.686 454.004 315.943C454.004 315.943 454.617 315.236 453.699 314.577C453.699 314.577 453.968 313.132 452.26 313.226C452.26 313.226 451.339 312.289 450.832 313.094H450.834Z" fill="#2B2A29" fill-opacity="0.721569"/>
<path fill-rule="evenodd" clip-rule="evenodd" d="M15.0664 274.156H14.7852V57.3398H15.0664V274.156Z" fill="#2B2A29" fill-opacity="0.721569"/>
<path fill-rule="evenodd" clip-rule="evenodd" d="M490.393 274.156H490.113V57.3398H490.393V274.156Z" fill="#2B2A29" fill-opacity="0.721569"/>
<path fill-rule="evenodd" clip-rule="evenodd" d="M447.669 14.2988V14.5801H57.1367V14.2988H447.669Z" fill="#2B2A29" fill-opacity="0.721569"/>
<path fill-rule="evenodd" clip-rule="evenodd" d="M447.669 317.87V318.15H57.1367V317.87H447.669Z" fill="#2B2A29" fill-opacity="0.721569"/>
</svg>
