<svg width="70" height="100" viewBox="0 0 70 100" fill="none" xmlns="http://www.w3.org/2000/svg">
<g clip-path="url(#clip0_374_27748)">
<path fill-rule="evenodd" clip-rule="evenodd" d="M60.3947 31.0119V30.1147H62.0462V27.3418L64.0443 27.3214V25.466H64.6764V20.8173H64.0443V18.0444H63.0249V17.1473H61.2918L61.2714 14.354H60.4151V12.6005H59.6199V10.7451H58.7635V8.91007H58.0295V7.05466H57.0101V8.91007H56.2761V10.7451H55.5013V12.6005H54.6042V14.354H53.7682L53.7478 17.1473H52.0351V18.0444H51.0565V20.8173H50.3428V25.466H51.0565V27.3214H53.0546L53.0342 30.1147H54.5226V31.0119H60.3947Z" fill="#1E4875"/>
<path fill-rule="evenodd" clip-rule="evenodd" d="M14.7027 31.8478H8.95292V33.7032H3.61098V39.8403H6.46545V43.7346H4.56927V47.8125H3.3867V59.8217V63.8383H0.00210571V79.9253H3.67215L3.7537 87.8975H9.89082V99.7843H42.2687L42.2891 87.8975H48.2631V79.9661L51.6681 79.9253V63.8383H48.6505V47.8125H47.2029V43.7346H45.5718V39.8403H48.2224V33.1731H43.0231V31.8478H37.1918V19.1862H35.2141V15.8016H33.5014V12.3558H31.5848V5.24H39.0473H42.7173V6.52452H46.4689V7.6867H54.0944V4.44483H46.4689V3.54771H42.7173V2.69136H39.0473V1.73307H31.5848V0H20.2893V1.73307H16.5377V5.24H20.2893V12.3558H18.3523V15.8016H16.5377V19.1862H14.6823V31.8478H14.7027ZM34.1131 72.0959H27.3439V64.7966H34.1131V72.0959ZM40.9638 79.5787H34.1946V72.2794H40.9638V79.5787ZM40.9638 64.7762H34.1946V57.4769H40.9638V64.7762ZM27.6497 5.17883H30.3003V12.3354H27.6497V5.17883ZM32.115 19.5124H34.7655V31.807H32.115V19.5124Z" fill="#1E4875"/>
<path fill-rule="evenodd" clip-rule="evenodd" d="M68.8154 35.1916V33.9275H69.7125V33.0915H69.9979V30.9914H69.7125V29.7273H68.4687V28.0554H67.7143V26.4243H67.327V25.5883H67.0007V24.7524H66.5318V25.5883H66.2056V26.4243H65.8589L65.8386 28.0554H65.0638L65.0434 29.7273H63.8404V30.9914H63.5142V33.0915H63.8404V33.9275H64.7375V35.1916C66.1036 35.1916 67.4493 35.1916 68.8154 35.1916Z" fill="#1E4875"/>
</g>
<defs>
<clipPath id="clip0_374_27748">
<rect width="70" height="99.8047" fill="white"/>
</clipPath>
</defs>
</svg>
