<?xml version="1.0" encoding="UTF-8"?>
<!DOCTYPE svg PUBLIC "-//W3C//DTD SVG 1.1//EN" "http://www.w3.org/Graphics/SVG/1.1/DTD/svg11.dtd">
<!-- Creator: CorelDRAW -->
<svg xmlns="http://www.w3.org/2000/svg" xml:space="preserve" width="17.4347mm" height="5.6367mm" version="1.1" style="shape-rendering:geometricPrecision; text-rendering:geometricPrecision; image-rendering:optimizeQuality; fill-rule:evenodd; clip-rule:evenodd"
viewBox="0 0 277.13 89.6"
 xmlns:xlink="http://www.w3.org/1999/xlink"
 xmlns:xodm="http://www.corel.com/coreldraw/odm/2003">
 <defs>
  <style type="text/css">
   <![CDATA[
    .fil1 {fill:#060606}
    .fil2 {fill:#D03236}
    .fil0 {fill:#060606;fill-rule:nonzero}
   ]]>
  </style>
 </defs>
 <g id="Layer_x0020_1">
  <metadata id="CorelCorpID_0Corel-Layer"/>
  <g id="_3086947457120">
   <path class="fil0" d="M64.29 82.96l0 -2.47 5.41 0c0.55,0 1,-0.2 1.33,-0.58 0.33,-0.39 0.5,-0.91 0.51,-1.56l0 0c0,-0.64 -0.17,-1.16 -0.5,-1.55 -0.34,-0.39 -0.78,-0.59 -1.33,-0.59l-5.41 0 0 -2.47 5.48 0c0.89,0 1.68,0.19 2.35,0.57 0.67,0.38 1.19,0.92 1.55,1.61 0.37,0.69 0.55,1.5 0.55,2.43l0 0c0,0.93 -0.18,1.74 -0.55,2.43 -0.37,0.69 -0.89,1.23 -1.55,1.61 -0.67,0.39 -1.45,0.58 -2.34,0.58l-5.48 0zm-1.07 6.48l0 -15.71 2.58 0 0 15.71 -2.58 0zm8.56 0l-3.71 -6.96 2.68 -0.49 4.12 7.46 -3.1 0zm8.85 -15.7l0 15.7 -2.64 0 0 -15.7 2.64 0zm8.01 15.7l-5.17 -15.7 2.72 0 3.55 11.39 3.55 -11.39 2.72 0 -5.17 15.7 -2.2 0zm10 0l0 -15.7 2.58 0 0 15.7 -2.58 0zm1.07 0l0 -2.47 9.23 0 0 2.47 -9.23 0zm0 -6.56l0 -2.47 8.04 0.01 0 2.46 -8.04 0zm0 -6.66l0 -2.47 9.23 0 0 2.47 -9.23 0zm13.68 6.75l0 -2.47 5.41 0c0.55,0 1,-0.2 1.33,-0.58 0.33,-0.39 0.5,-0.91 0.51,-1.56l0 0c0,-0.64 -0.17,-1.16 -0.5,-1.55 -0.34,-0.39 -0.78,-0.59 -1.33,-0.59l-5.41 0 0 -2.47 5.48 0c0.89,0 1.67,0.19 2.34,0.57 0.67,0.38 1.19,0.92 1.55,1.61 0.37,0.69 0.55,1.5 0.55,2.43l0 0c0,0.93 -0.18,1.74 -0.55,2.43 -0.37,0.69 -0.89,1.23 -1.55,1.61 -0.67,0.39 -1.44,0.58 -2.34,0.58l-5.48 0zm-1.07 6.48l0 -15.71 2.58 0 0 15.71 -2.58 0zm8.56 0l-3.71 -6.96 2.68 -0.49 4.12 7.46 -3.1 0zm13.33 -6.48l0 -2.47 5.41 0c0.55,0 1,-0.2 1.33,-0.58 0.33,-0.39 0.5,-0.91 0.51,-1.56l0 0c0,-0.64 -0.17,-1.16 -0.5,-1.55 -0.34,-0.39 -0.78,-0.59 -1.33,-0.59l-5.41 0 0 -2.47 5.48 0c0.89,0 1.67,0.19 2.34,0.57 0.67,0.38 1.19,0.92 1.55,1.61 0.37,0.69 0.55,1.5 0.55,2.43l0 0c0,0.93 -0.18,1.74 -0.55,2.43 -0.37,0.69 -0.89,1.23 -1.55,1.61 -0.67,0.39 -1.44,0.58 -2.34,0.58l-5.48 0zm-1.07 6.48l0 -15.71 2.58 0 0 15.71 -2.58 0zm8.56 0l-3.7 -6.96 2.68 -0.49 4.12 7.46 -3.1 0zm6.32 0l0 -15.7 2.58 0 0 15.7 -2.58 0zm1.07 0l0 -2.47 9.23 0 0 2.47 -9.23 0zm0 -6.56l0 -2.47 8.04 0.01 0 2.46 -8.04 0zm0 -6.66l0 -2.47 9.23 0 0 2.47 -9.23 0zm17.44 13.39c-0.76,0 -1.48,-0.07 -2.18,-0.22 -0.69,-0.15 -1.34,-0.37 -1.95,-0.66 -0.6,-0.29 -1.16,-0.65 -1.67,-1.06l0 0 1.37 -2.06 0 0c0.61,0.51 1.29,0.89 2.04,1.16 0.76,0.27 1.55,0.4 2.39,0.4 1.05,0 1.86,-0.19 2.44,-0.57 0.58,-0.38 0.87,-0.91 0.87,-1.58l0 -0.01c0,-0.53 -0.15,-0.93 -0.44,-1.21 -0.29,-0.28 -0.67,-0.49 -1.15,-0.62 -0.48,-0.13 -0.99,-0.25 -1.55,-0.34 -0.6,-0.09 -1.2,-0.21 -1.82,-0.35 -0.62,-0.14 -1.18,-0.36 -1.7,-0.66 -0.52,-0.3 -0.93,-0.72 -1.24,-1.28 -0.31,-0.56 -0.47,-1.3 -0.47,-2.23l0 -0.01c0,-1.5 0.49,-2.66 1.48,-3.48 0.99,-0.82 2.39,-1.23 4.2,-1.23 0.85,0 1.7,0.14 2.54,0.42 0.84,0.27 1.64,0.69 2.4,1.23l0 0 -1.25 2.13 0 0c-0.6,-0.44 -1.21,-0.77 -1.83,-0.99 -0.63,-0.22 -1.24,-0.33 -1.85,-0.33 -0.99,0 -1.75,0.18 -2.3,0.55 -0.55,0.37 -0.82,0.88 -0.82,1.54l0 0.01c0,0.55 0.16,0.96 0.48,1.25 0.32,0.28 0.74,0.49 1.26,0.63 0.52,0.14 1.07,0.27 1.66,0.38 0.59,0.11 1.18,0.25 1.76,0.42 0.59,0.17 1.12,0.41 1.61,0.72 0.49,0.31 0.87,0.74 1.16,1.29 0.29,0.54 0.43,1.25 0.43,2.12l0 0.02c0,1.48 -0.51,2.62 -1.54,3.43 -1.02,0.81 -2.47,1.22 -4.33,1.22zm14.12 0c-1.13,0 -2.12,-0.24 -2.96,-0.72 -0.84,-0.48 -1.5,-1.15 -1.96,-2.02 -0.47,-0.87 -0.7,-1.89 -0.7,-3.04l0 -4.45c0,-1.17 0.24,-2.18 0.7,-3.05 0.47,-0.87 1.12,-1.54 1.96,-2.02 0.84,-0.48 1.83,-0.72 2.96,-0.72 1.13,0 2.12,0.24 2.95,0.72 0.84,0.48 1.5,1.15 1.96,2.02 0.47,0.87 0.7,1.88 0.7,3.05l0 4.45c0,1.16 -0.24,2.17 -0.7,3.04 -0.46,0.87 -1.12,1.55 -1.96,2.02 -0.84,0.48 -1.83,0.72 -2.95,0.72zm0 -2.56c0.9,-0.01 1.62,-0.3 2.16,-0.87 0.54,-0.58 0.81,-1.33 0.81,-2.28l0 -4.6c0,-0.96 -0.27,-1.72 -0.81,-2.29 -0.54,-0.58 -1.26,-0.86 -2.16,-0.86 -0.89,0 -1.61,0.28 -2.16,0.86 -0.54,0.57 -0.81,1.33 -0.8,2.29l0 4.6c-0.01,0.95 0.26,1.71 0.8,2.28 0.55,0.57 1.26,0.86 2.16,0.87zm10.29 -4.08l0 -2.47 5.41 0c0.55,0 1,-0.2 1.33,-0.58 0.33,-0.39 0.5,-0.91 0.51,-1.56l0 0c0,-0.64 -0.17,-1.16 -0.5,-1.55 -0.34,-0.39 -0.78,-0.59 -1.33,-0.59l-5.41 0 0 -2.47 5.48 0c0.89,0 1.67,0.19 2.34,0.57 0.67,0.38 1.19,0.92 1.55,1.61 0.37,0.69 0.55,1.5 0.55,2.43l0 0c0,0.93 -0.18,1.74 -0.55,2.43 -0.37,0.69 -0.89,1.23 -1.55,1.61 -0.67,0.39 -1.44,0.58 -2.34,0.58l-5.48 0zm-1.07 6.48l0 -15.71 2.58 0 0 15.71 -2.58 0zm8.56 0l-3.7 -6.96 2.68 -0.49 4.12 7.46 -3.1 0zm8.52 0l0 -14.41 2.57 0 0.01 14.41 -2.58 0zm-4.36 -13.22l0 -2.47 11.3 0 0 2.47 -11.3 0z"/>
   <g>
    <path class="fil1" d="M57.11 11.53l-14.21 0c-0.88,0 -1.6,0.72 -1.6,1.6l0 49.35c0,0.88 0.72,1.6 1.6,1.6l14.21 0c0.88,0 1.6,-0.72 1.6,-1.6l0 -49.35c0,-0.88 -0.72,-1.6 -1.6,-1.6z"/>
    <path class="fil1" d="M231.69 42.41c0,0 0.98,27.2 36.48,20.67l0 -9.71 0 -0.04 0 -7.28 0 -6.94c0,-0.88 -0.72,-2.35 -1.6,-2.36l-7.53 -0.09 0 -8.1 4.15 0c0,0 7.32,0.14 8.66,4.12 -0.02,0.91 3.21,1.17 3.25,-0.48 0.54,-10.46 -6.43,-20.67 -17.67,-20.67l-0.95 0 -0.95 0 -12.3 0c-0.89,0 -1.6,0.72 -1.6,1.6 0,8.96 0,19.79 0,28.75l17.09 0.01 -0.1 3.96 -16.99 0c-0.64,-0.17 -4.91,0.2 -6.68,-3.92 -0.25,-1.54 -3.31,-1.37 -3.25,0.48z"/>
    <path class="fil1" d="M21.19 0.81l13.65 3.48 0.14 0 0.05 0c0,0 1.13,-0.16 1.38,1.24 0.03,0.12 0.04,0.25 0.04,0.37l0 55.75 -0 0.08 0 0.85c0,0 0.04,1.31 -1.08,1.51l-10.34 0c-6.41,0.09 -25.17,-0.36 -25.04,-24.64 -0.12,-11.68 6.99,-12.66 8.66,-6.43 1.46,5.47 4.36,8.73 10.32,8.46l0 -36.53 2.22 -4.14z"/>
    <path class="fil1" d="M232.65 4.18c0,1.89 0.03,5.76 -2.1,6.48 -0.6,0.18 -0.75,1.42 0.23,1.58 6.2,0.56 9.41,-2.48 9.8,-8.69 0.15,-2.3 -7.97,-2.61 -7.94,-0.06l0.01 0.69z"/>
    <path class="fil1" d="M210.98 11.53l14.26 0c0.89,0 1.61,0.72 1.61,1.61l0 49.33c0,0.89 -0.72,1.61 -1.61,1.61l-14.26 0c-0.89,0 -1.61,-0.72 -1.61,-1.61l0 -19.82c-24.27,-0.49 -23.87,-14.93 -24.11,-19.69l0 -10.34c0.2,-1.11 1.51,-1.08 1.51,-1.08l0.85 0 0.08 0 12.76 0c1.99,-0 2.16,0.48 2.16,1.5 0,5.74 -0.39,9.92 -0.14,15.45 0.18,6.26 4.13,9 6.88,9.38l0 -24.73c0,-0.89 0.72,-1.61 1.61,-1.61z"/>
    <path class="fil1" d="M65.15 11.54l14.21 0c0.88,0 1.6,0.72 1.6,1.6l0 49.34c0,0.88 -0.72,1.61 -1.6,1.61l-14.21 0c-0.88,0 -1.6,-0.72 -1.6,-1.61l0 -49.34c0,-0.88 0.72,-1.6 1.6,-1.6z"/>
    <path class="fil1" d="M103.75 11.54l14.21 0c0.88,0 1.6,0.72 1.6,1.6l0 49.34c0,0.88 -0.72,1.61 -1.6,1.61l-14.21 0c-0.88,0 -1.6,-0.72 -1.6,-1.61l0 -49.34c0,-0.88 0.72,-1.6 1.6,-1.6z"/>
    <path class="fil1" d="M108.24 11.54l-4.38 -0.01c-10.31,-0.02 -8.74,16.32 -10.27,16.28 -1.37,-0.02 -0.17,-15.72 -14.15,-16.28 -0.25,-0.01 -0.51,-0 -0.77,-0l-3.46 0 1.97 16.07c0,0 8.81,-5.08 12.92,7.89l2.75 0c0,0 3.04,-12.53 13,-7.89l2.39 -16.07z"/>
    <polygon class="fil1" points="90.74,21.81 91.49,26.83 92.5,21.45 92.71,23.53 92.22,28.19 90.85,28.19 "/>
    <path class="fil1" d="M126.01 11.54l14.21 0c0.88,0 1.6,0.72 1.6,1.6l0 49.34c0,0.88 -0.72,1.61 -1.6,1.61l-14.21 0c-0.88,0 -1.6,-0.72 -1.6,-1.61l0 -49.34c0,-0.88 0.72,-1.6 1.6,-1.6z"/>
    <path class="fil1" d="M164.61 11.54l14.21 0c0.88,0 1.6,0.72 1.6,1.6l0 49.34c0,0.88 -0.72,1.61 -1.6,1.61l-14.21 0c-0.88,0 -1.6,-0.72 -1.6,-1.61l0 -49.34c0,-0.88 0.72,-1.6 1.6,-1.6z"/>
    <path class="fil1" d="M169.1 11.54l-4.38 -0.01c-10.56,-0.02 -8.59,17.43 -10.12,17.38 -1.36,-0.02 -0.31,-16.83 -14.3,-17.38 -0.25,-0.01 -0.51,-0 -0.77,-0l-3.46 0 1.97 16.07c0,0 8.81,-5.08 12.92,7.89l2.75 0c0,0 3.04,-12.53 12.99,-7.89l2.39 -16.07z"/>
    <polygon class="fil1" points="151.59,21.81 152.34,26.83 153.35,21.45 153.57,23.53 153.08,28.19 151.7,28.19 "/>
    <polygon class="fil1" points="41.3,13.37 41.3,11.93 43.45,8.18 46.5,8.33 45.62,13.73 "/>
    <polygon class="fil1" points="63.55,13.37 63.55,11.93 65.7,8.18 68.75,8.33 67.87,13.73 "/>
    <polygon class="fil1" points="124.4,13.37 124.4,11.93 126.55,8.18 129.6,8.33 128.73,13.73 "/>
    <polygon class="fil1" points="185.26,13.37 185.26,11.93 187.41,8.18 190.46,8.33 189.58,13.73 "/>
    <polygon class="fil1" points="209.37,13.37 209.37,11.93 211.52,8.18 214.57,8.33 213.69,13.73 "/>
    <polygon class="fil1" points="241.62,13.37 241.62,11.93 243.77,8.18 246.82,8.33 245.95,13.73 "/>
    <polygon class="fil1" points="231.69,42.46 231.69,41.02 233.85,37.43 236.89,37.42 236.02,42.82 "/>
    <polygon class="fil1" points="232.63,5.86 232.63,2.74 235.18,1.15 238.24,1.3 237.36,6.7 "/>
    <polygon class="fil1" points="0.13,36.62 0.65,32.56 3.27,27.95 6.32,28.1 5.44,33.49 "/>
    <polygon class="fil1" points="38.16,57.8 38.16,59.24 35.98,64.09 32.75,64.08 33.84,57.44 "/>
    <polygon class="fil1" points="60.37,57.8 60.37,59.24 58.19,64.09 54.96,64.08 56.05,57.44 "/>
    <polygon class="fil1" points="82.65,57.8 82.65,59.24 80.46,64.09 77.24,64.08 78.32,57.44 "/>
    <polygon class="fil1" points="121.25,57.8 121.25,59.24 119.07,64.09 115.84,64.08 116.92,57.44 "/>
    <polygon class="fil1" points="143.52,57.8 143.52,59.24 141.33,64.09 138.11,64.08 139.19,57.44 "/>
    <polygon class="fil1" points="182.05,57.8 182.05,59.24 179.86,64.09 176.64,64.08 177.72,57.44 "/>
    <polygon class="fil1" points="228.51,57.8 228.51,59.24 226.33,64.09 223.1,64.08 224.19,57.44 "/>
    <polygon class="fil1" points="270.16,57.33 270.16,58.77 268.17,63.08 264.75,63.61 265.84,56.98 "/>
    <polygon class="fil1" points="276.91,26.63 276.91,28.47 274.95,32.72 272.41,32.75 272.8,26.23 "/>
    <g>
     <path class="fil2" d="M59.11 7.25l-14.21 0c-0.88,0 -1.6,0.72 -1.6,1.6l0 49.35c0,0.88 0.72,1.6 1.6,1.6l14.21 0c0.88,0 1.6,-0.72 1.6,-1.6l0 -49.35c0,-0.88 -0.72,-1.6 -1.6,-1.6z"/>
     <path class="fil2" d="M233.7 38.13c0,0 0.98,27.19 36.48,20.67l0 -9.71 0 -0.04 0 -7.28 0 -6.94c0,-0.88 -0.72,-1.61 -1.6,-1.61l-7.53 0 0 -8.94 4.15 0c0,0 7.32,0.14 8.66,4.12 -0.02,0.91 3.21,1.17 3.25,-0.48 0.54,-10.46 -6.43,-20.67 -17.67,-20.67l-0.95 0 -0.95 0 -12.3 0c-0.89,0 -1.6,0.72 -1.6,1.61 0,8.96 0,19.43 0,28.39l16.99 0 0 4.32 -16.99 0c-0.64,-0.17 -4.91,0.2 -6.68,-3.92 -0.25,-1.54 -3.31,-1.37 -3.25,0.48z"/>
     <path class="fil2" d="M22.59 0l14.26 0 0.14 0 0.04 0c0,0 1.13,-0.16 1.38,1.24 0.03,0.12 0.04,0.25 0.04,0.37l0 55.75 -0 0.08 0 0.85c0,0 0.04,1.31 -1.08,1.51l-10.33 0c-6.41,0.09 -25.17,-0.36 -25.04,-24.64 -0.12,-11.68 6.99,-12.66 8.66,-6.43 1.46,5.47 4.36,8.73 10.32,8.46l0 -35.58c0,-0.89 0.72,-1.61 1.61,-1.61z"/>
     <path class="fil2" d="M235.01 2.48c0,1.89 0.03,5.76 -2.1,6.48 -0.6,0.18 -0.75,1.42 0.23,1.58 6.2,0.56 9.41,-2.48 9.8,-8.69 0.15,-2.3 -7.97,-2.61 -7.94,-0.06l0.01 0.68z"/>
     <path class="fil2" d="M212.98 7.25l14.26 0c0.89,0 1.61,0.72 1.61,1.61l0 49.33c0,0.89 -0.72,1.61 -1.61,1.61l-14.26 0c-0.89,0 -1.61,-0.73 -1.61,-1.61l0 -19.82c-24.27,-0.49 -23.87,-14.93 -24.11,-19.69l0 -10.34c0.2,-1.11 1.51,-1.08 1.51,-1.08l0.85 0 0.08 0 12.76 0c1.99,-0 2.17,0.48 2.17,1.5 0,5.74 -0.39,9.92 -0.14,15.45 0.18,6.26 4.13,9 6.88,9.38l0 -24.73c0,-0.89 0.72,-1.61 1.61,-1.61z"/>
     <g>
      <path class="fil2" d="M67.16 7.25l14.21 0c0.88,0 1.6,0.72 1.6,1.6l0 49.35c0,0.88 -0.72,1.6 -1.6,1.6l-14.21 0c-0.88,0 -1.6,-0.72 -1.6,-1.6l0 -49.35c0,-0.88 0.72,-1.6 1.6,-1.6z"/>
      <path class="fil2" d="M105.76 7.25l14.21 0c0.88,0 1.6,0.72 1.6,1.6l0 49.35c0,0.88 -0.72,1.6 -1.6,1.6l-14.21 0c-0.88,0 -1.6,-0.72 -1.6,-1.6l0 -49.35c0,-0.88 0.72,-1.6 1.6,-1.6z"/>
      <path class="fil2" d="M110.25 7.26l-4.38 -0.01c-14.04,-0.02 -10.8,15.43 -12.33,15.39 -1.36,-0.02 1.9,-14.82 -12.08,-15.38 -0.25,-0.01 -0.51,-0 -0.77,-0l-3.45 0 1.97 16.07c0,0 8.81,-5.08 12.92,7.89l2.75 0c0,0 3.04,-12.53 13,-7.89l2.39 -16.07z"/>
      <polygon class="fil2" points="92.74,17.53 93.49,22.55 94.5,17.16 94.71,19.25 94.23,23.91 92.85,23.91 "/>
     </g>
     <g>
      <path class="fil2" d="M128.01 7.25l14.21 0c0.88,0 1.6,0.72 1.6,1.6l0 49.35c0,0.88 -0.72,1.6 -1.6,1.6l-14.21 0c-0.88,0 -1.6,-0.72 -1.6,-1.6l0 -49.35c0,-0.88 0.72,-1.6 1.6,-1.6z"/>
      <path class="fil2" d="M166.61 7.25l14.21 0c0.88,0 1.6,0.72 1.6,1.6l0 49.35c0,0.88 -0.72,1.6 -1.6,1.6l-14.21 0c-0.88,0 -1.6,-0.72 -1.6,-1.6l0 -49.35c0,-0.88 0.72,-1.6 1.6,-1.6z"/>
      <path class="fil2" d="M171.1 7.26l-4.38 -0.01c-14.04,-0.02 -10.8,15.43 -12.33,15.39 -1.36,-0.02 1.9,-14.82 -12.08,-15.38 -0.25,-0.01 -0.51,-0 -0.77,-0l-3.45 0 1.97 16.07c0,0 8.81,-5.08 12.92,7.89l2.75 0c0,0 3.04,-12.53 13,-7.89l2.39 -16.07z"/>
      <polygon class="fil2" points="153.59,17.53 154.34,22.55 155.35,17.16 155.57,19.25 155.08,23.91 153.7,23.91 "/>
     </g>
    </g>
   </g>
  </g>
 </g>
</svg>
