<?xml version="1.0" encoding="UTF-8"?>
<!DOCTYPE svg PUBLIC "-//W3C//DTD SVG 1.1//EN" "http://www.w3.org/Graphics/SVG/1.1/DTD/svg11.dtd">
<!-- Creator: CorelDRAW -->
<svg xmlns="http://www.w3.org/2000/svg" xml:space="preserve" width="17.1009mm" height="5.5287mm" version="1.1" style="shape-rendering:geometricPrecision; text-rendering:geometricPrecision; image-rendering:optimizeQuality; fill-rule:evenodd; clip-rule:evenodd"
viewBox="0 0 605.4 195.73"
 xmlns:xlink="http://www.w3.org/1999/xlink"
 xmlns:xodm="http://www.corel.com/coreldraw/odm/2003">
 <defs>
  <style type="text/css">
   <![CDATA[
    .fil1 {fill:#060606}
    .fil2 {fill:#E9D6B4}
    .fil0 {fill:#060606;fill-rule:nonzero}
   ]]>
  </style>
 </defs>
 <g id="Layer_x0020_1">
  <metadata id="CorelCorpID_0Corel-Layer"/>
  <g id="_3086132166288">
   <path class="fil0" d="M140.44 181.22l0 -5.4 11.82 0c1.21,0 2.17,-0.43 2.9,-1.28 0.73,-0.86 1.1,-2 1.11,-3.41l0 0c0,-1.4 -0.37,-2.53 -1.09,-3.38 -0.73,-0.86 -1.71,-1.29 -2.91,-1.29l-11.82 0 0 -5.4 11.98 0c1.96,0 3.66,0.42 5.12,1.25 1.47,0.83 2.59,2.01 3.4,3.51 0.8,1.51 1.2,3.27 1.2,5.3l0 0c0,2.03 -0.4,3.8 -1.21,5.31 -0.81,1.51 -1.95,2.69 -3.4,3.53 -1.46,0.84 -3.15,1.26 -5.11,1.26l-11.98 0zm-2.34 14.15l0 -34.31 5.64 0 0 34.31 -5.64 0zm18.7 0l-8.09 -15.22 5.85 -1.08 9.01 16.29 -6.77 0zm19.33 -34.29l0 34.29 -5.76 0 0 -34.29 5.76 0zm17.51 34.29l-11.29 -34.29 5.94 0 7.76 24.88 7.76 -24.88 5.94 0 -11.3 34.29 -4.81 0zm21.85 0l0 -34.29 5.64 0 0 34.29 -5.64 0zm2.34 0l0 -5.4 20.16 0 0 5.4 -20.16 0zm0 -14.34l0 -5.4 17.57 0.02 0 5.38 -17.57 0zm0 -14.55l0 -5.4 20.16 0 0 5.4 -20.16 0zm29.89 14.74l0 -5.4 11.82 0c1.21,0 2.17,-0.43 2.9,-1.28 0.73,-0.86 1.1,-2 1.11,-3.41l0 0c0,-1.4 -0.37,-2.53 -1.09,-3.38 -0.73,-0.86 -1.71,-1.29 -2.91,-1.29l-11.82 0 0 -5.4 11.98 0c1.96,0 3.66,0.42 5.12,1.25 1.47,0.83 2.59,2.01 3.4,3.51 0.8,1.51 1.2,3.27 1.2,5.3l0 0c0,2.03 -0.4,3.8 -1.21,5.31 -0.81,1.51 -1.95,2.69 -3.4,3.53 -1.46,0.84 -3.15,1.26 -5.11,1.26l-11.98 0zm-2.34 14.15l0 -34.31 5.64 0 0 34.31 -5.64 0zm18.7 0l-8.09 -15.22 5.85 -1.08 9.01 16.29 -6.77 0zm29.11 -14.15l0 -5.4 11.82 0c1.21,0 2.17,-0.43 2.9,-1.28 0.73,-0.86 1.1,-2 1.11,-3.41l0 0c0,-1.4 -0.37,-2.53 -1.09,-3.38 -0.74,-0.86 -1.71,-1.29 -2.92,-1.29l-11.82 0 0 -5.4 11.98 0c1.96,0 3.66,0.42 5.12,1.25 1.47,0.83 2.59,2.01 3.4,3.51 0.8,1.51 1.2,3.27 1.2,5.3l0 0c0,2.03 -0.4,3.8 -1.21,5.31 -0.81,1.51 -1.95,2.69 -3.4,3.53 -1.46,0.84 -3.16,1.26 -5.12,1.26l-11.98 0zm-2.34 14.15l0 -34.31 5.64 0 0 34.31 -5.64 0zm18.7 0l-8.09 -15.22 5.86 -1.08 9.01 16.29 -6.77 0zm13.81 0l0 -34.29 5.64 0 0 34.29 -5.64 0zm2.34 0l0 -5.4 20.17 0 0 5.4 -20.17 0zm0 -14.34l0 -5.4 17.58 0.02 0 5.38 -17.58 0zm0 -14.55l0 -5.4 20.17 0 0 5.4 -20.17 0zm38.1 29.25c-1.65,0 -3.24,-0.16 -4.76,-0.48 -1.51,-0.32 -2.93,-0.81 -4.26,-1.44 -1.32,-0.64 -2.53,-1.41 -3.65,-2.32l0 0 2.99 -4.51 0 0c1.33,1.1 2.81,1.94 4.46,2.53 1.65,0.58 3.39,0.87 5.21,0.87 2.29,0 4.07,-0.41 5.34,-1.24 1.26,-0.82 1.9,-1.98 1.9,-3.46l0 -0.02c0,-1.15 -0.32,-2.03 -0.96,-2.64 -0.64,-0.61 -1.47,-1.06 -2.51,-1.36 -1.04,-0.29 -2.16,-0.54 -3.4,-0.74 -1.31,-0.2 -2.63,-0.46 -3.97,-0.76 -1.35,-0.3 -2.58,-0.79 -3.7,-1.44 -1.13,-0.65 -2.03,-1.59 -2.72,-2.8 -0.68,-1.22 -1.02,-2.84 -1.02,-4.87l0 -0.02c0,-3.27 1.08,-5.8 3.24,-7.6 2.16,-1.79 5.21,-2.69 9.17,-2.69 1.85,0 3.7,0.31 5.54,0.91 1.84,0.61 3.58,1.5 5.24,2.68l0 0 -2.73 4.64 0 0c-1.31,-0.96 -2.65,-1.69 -4.01,-2.16 -1.37,-0.48 -2.71,-0.72 -4.03,-0.72 -2.16,0 -3.83,0.4 -5.02,1.19 -1.2,0.8 -1.79,1.92 -1.79,3.37l0 0.02c0,1.19 0.34,2.1 1.04,2.72 0.7,0.62 1.62,1.08 2.75,1.38 1.13,0.3 2.34,0.58 3.63,0.83 1.29,0.25 2.58,0.56 3.86,0.92 1.28,0.36 2.45,0.89 3.51,1.57 1.06,0.68 1.91,1.62 2.53,2.81 0.63,1.18 0.95,2.73 0.95,4.63l0 0.05c0,3.23 -1.12,5.72 -3.36,7.5 -2.24,1.78 -5.4,2.67 -9.47,2.67zm30.86 0c-2.47,0 -4.63,-0.52 -6.46,-1.57 -1.84,-1.05 -3.27,-2.52 -4.29,-4.42 -1.02,-1.91 -1.54,-4.12 -1.54,-6.65l0 -9.71c0,-2.55 0.52,-4.78 1.54,-6.67 1.02,-1.89 2.45,-3.37 4.29,-4.41 1.83,-1.05 3.99,-1.57 6.46,-1.57 2.46,0 4.62,0.52 6.46,1.57 1.84,1.04 3.27,2.52 4.29,4.41 1.02,1.89 1.54,4.11 1.54,6.67l0 9.71c0,2.53 -0.51,4.74 -1.54,6.65 -1.02,1.9 -2.45,3.37 -4.29,4.42 -1.83,1.04 -3.99,1.57 -6.46,1.57zm0 -5.59c1.96,-0.02 3.54,-0.65 4.71,-1.9 1.18,-1.25 1.77,-2.91 1.77,-4.99l0 -10.05c0,-2.09 -0.59,-3.76 -1.77,-5.01 -1.18,-1.26 -2.75,-1.88 -4.71,-1.88 -1.95,0 -3.52,0.62 -4.71,1.88 -1.18,1.25 -1.77,2.91 -1.75,5.01l0 10.05c-0.02,2.07 0.57,3.73 1.75,4.99 1.19,1.25 2.75,1.88 4.71,1.9zm22.48 -8.92l0 -5.4 11.82 0c1.21,0 2.17,-0.43 2.9,-1.28 0.73,-0.86 1.1,-2 1.11,-3.41l0 0c0,-1.4 -0.37,-2.53 -1.09,-3.38 -0.73,-0.86 -1.71,-1.29 -2.91,-1.29l-11.82 0 0 -5.4 11.98 0c1.96,0 3.66,0.42 5.12,1.25 1.47,0.83 2.59,2.01 3.4,3.51 0.8,1.51 1.2,3.27 1.2,5.3l0 0c0,2.03 -0.4,3.8 -1.21,5.31 -0.81,1.51 -1.95,2.69 -3.4,3.53 -1.46,0.84 -3.15,1.26 -5.11,1.26l-11.98 0zm-2.34 14.15l0 -34.31 5.64 0 0 34.31 -5.64 0zm18.7 0l-8.09 -15.22 5.85 -1.08 9.01 16.29 -6.77 0zm18.62 0l0 -31.48 5.61 0 0.02 31.48 -5.64 0zm-9.53 -28.89l0 -5.4 24.68 0 0 5.4 -24.68 0z"/>
   <path class="fil1" d="M124.75 25.19l-31.04 0c-1.93,0 -3.5,1.58 -3.5,3.51l0 107.8c0,1.93 1.58,3.51 3.5,3.51l31.04 0c1.93,0 3.51,-1.58 3.51,-3.51l0 -107.8c0,-1.93 -1.58,-3.51 -3.51,-3.51z"/>
   <path class="fil1" d="M506.14 92.64c0,0 2.13,59.41 79.69,45.16l0 -21.21 0 -0.09 0 -15.91 0 -15.16c0,-1.92 -1.58,-5.13 -3.5,-5.15l-16.45 -0.19 0 -17.7 9.06 0c0,0 15.99,0.31 18.92,8.99 -0.04,1.99 7.02,2.55 7.1,-1.04 1.19,-22.84 -14.05,-45.14 -38.6,-45.14l-2.07 0 -2.07 0 -26.88 0c-1.94,0 -3.5,1.58 -3.5,3.51 0,19.56 0,43.23 0,62.79l37.34 0.02 -0.22 8.65 -37.12 0c-1.4,-0.37 -10.72,0.43 -14.59,-8.56 -0.54,-3.36 -7.23,-3 -7.1,1.04z"/>
   <path class="fil1" d="M46.3 1.77l29.82 7.59 0.32 0.01 0.1 0c0,0 2.47,-0.35 3.01,2.7 0.06,0.26 0.1,0.54 0.1,0.8l0 121.78 -0.01 0.18 0 1.86c0,0 0.08,2.85 -2.36,3.29l-22.58 0c-13.99,0.2 -54.99,-0.78 -54.7,-53.82 -0.26,-25.51 15.28,-27.66 18.91,-14.04 3.18,11.94 9.53,19.07 22.54,18.48l0 -79.8 4.85 -9.04z"/>
   <path class="fil1" d="M508.24 9.12c0,4.14 0.07,12.59 -4.59,14.16 -1.3,0.39 -1.63,3.1 0.51,3.46 13.54,1.23 20.55,-5.41 21.41,-18.98 0.32,-5.02 -17.41,-5.7 -17.35,-0.13l0.02 1.49z"/>
   <path class="fil1" d="M460.89 25.2l31.16 0c1.94,0 3.52,1.58 3.52,3.52l0 107.77c0,1.94 -1.58,3.52 -3.52,3.52l-31.16 0c-1.94,0 -3.52,-1.59 -3.52,-3.52l0 -43.31c-53.01,-1.08 -52.15,-32.62 -52.66,-43.01l0 -22.59c0.44,-2.44 3.29,-2.36 3.29,-2.36l1.86 0 0.18 0 27.88 0c4.34,-0 4.73,1.04 4.73,3.29 0,12.54 -0.86,21.68 -0.3,33.76 0.4,13.68 9.02,19.66 15.03,20.48l0 -54.02c0,-1.94 1.58,-3.52 3.52,-3.52z"/>
   <path class="fil1" d="M142.33 25.2l31.04 0c1.93,0 3.5,1.58 3.5,3.51l0 107.79c0,1.93 -1.58,3.51 -3.5,3.51l-31.04 0c-1.93,0 -3.5,-1.58 -3.5,-3.51l0 -107.79c0,-1.93 1.57,-3.51 3.5,-3.51z"/>
   <path class="fil1" d="M226.66 25.2l31.03 0c1.93,0 3.5,1.58 3.5,3.51l0 107.79c0,1.93 -1.58,3.51 -3.5,3.51l-31.03 0c-1.93,0 -3.51,-1.58 -3.51,-3.51l0 -107.79c0,-1.93 1.58,-3.51 3.51,-3.51z"/>
   <path class="fil1" d="M236.46 25.21l-9.57 -0.01c-22.53,-0.04 -19.09,35.66 -22.43,35.56 -2.98,-0.04 -0.36,-34.34 -30.91,-35.55 -0.54,-0.02 -1.11,-0.01 -1.69,-0.01l-7.55 0 4.3 35.12c0,0 19.25,-11.09 28.22,17.24l6.02 0c0,0 6.64,-27.37 28.39,-17.24l5.22 -35.11z"/>
   <polygon class="fil1" points="198.22,47.64 199.86,58.61 202.07,46.85 202.53,51.4 201.47,61.58 198.46,61.58 "/>
   <path class="fil1" d="M275.27 25.2l31.04 0c1.93,0 3.5,1.58 3.5,3.51l0 107.79c0,1.93 -1.58,3.51 -3.5,3.51l-31.04 0c-1.93,0 -3.5,-1.58 -3.5,-3.51l0 -107.79c0,-1.93 1.57,-3.51 3.5,-3.51z"/>
   <path class="fil1" d="M359.59 25.2l31.03 0c1.93,0 3.5,1.58 3.5,3.51l0 107.79c0,1.93 -1.58,3.51 -3.5,3.51l-31.03 0c-1.93,0 -3.51,-1.58 -3.51,-3.51l0 -107.79c0,-1.93 1.58,-3.51 3.51,-3.51z"/>
   <path class="fil1" d="M369.4 25.21l-9.57 -0.01c-23.07,-0.04 -18.77,38.07 -22.1,37.98 -2.98,-0.05 -0.68,-36.75 -31.23,-37.96 -0.55,-0.02 -1.11,-0.01 -1.69,-0.01l-7.55 0 4.3 35.12c0,0 19.25,-11.09 28.22,17.24l6.02 0c0,0 6.64,-27.37 28.39,-17.24l5.22 -35.11z"/>
   <polygon class="fil1" points="331.16,47.64 332.79,58.61 335,46.85 335.47,51.4 334.41,61.58 331.4,61.58 "/>
   <polygon class="fil1" points="90.21,29.21 90.21,26.07 94.91,17.88 101.57,18.2 99.66,29.99 "/>
   <polygon class="fil1" points="138.83,29.21 138.83,26.07 143.52,17.88 150.19,18.2 148.28,29.99 "/>
   <polygon class="fil1" points="271.76,29.21 271.76,26.07 276.46,17.88 283.13,18.2 281.21,29.99 "/>
   <polygon class="fil1" points="404.7,29.21 404.7,26.07 409.4,17.88 416.07,18.2 414.15,29.99 "/>
   <polygon class="fil1" points="457.37,29.21 457.37,26.07 462.07,17.88 468.73,18.2 466.82,29.99 "/>
   <polygon class="fil1" points="527.83,29.21 527.83,26.07 532.52,17.88 539.19,18.2 537.28,29.99 "/>
   <polygon class="fil1" points="506.14,92.76 506.14,89.62 510.85,81.76 517.5,81.75 515.58,93.54 "/>
   <polygon class="fil1" points="508.18,12.81 508.18,5.98 513.77,2.52 520.44,2.84 518.52,14.64 "/>
   <polygon class="fil1" points="0.28,80 1.42,71.12 7.13,61.05 13.8,61.38 11.89,73.17 "/>
   <polygon class="fil1" points="83.36,126.27 83.36,129.41 78.59,140 71.54,139.99 73.92,125.49 "/>
   <polygon class="fil1" points="131.88,126.27 131.88,129.41 127.11,140 120.06,139.99 122.43,125.49 "/>
   <polygon class="fil1" points="180.55,126.27 180.55,129.41 175.78,140 168.73,139.99 171.1,125.49 "/>
   <polygon class="fil1" points="264.88,126.27 264.88,129.41 260.1,140 253.06,139.99 255.43,125.49 "/>
   <polygon class="fil1" points="313.52,126.27 313.52,129.41 308.74,140 301.69,139.99 304.07,125.49 "/>
   <polygon class="fil1" points="397.69,126.27 397.69,129.41 392.92,140 385.87,139.99 388.24,125.49 "/>
   <polygon class="fil1" points="499.19,126.27 499.19,129.41 494.42,140 487.37,139.99 489.74,125.49 "/>
   <polygon class="fil1" points="590.18,125.24 590.18,128.39 585.83,137.8 578.36,138.97 580.73,124.47 "/>
   <polygon class="fil1" points="604.92,58.18 604.93,62.2 600.64,71.48 595.1,71.54 595.94,57.29 "/>
   <g>
    <path class="fil2" d="M129.12 15.84l-31.04 0c-1.93,0 -3.5,1.58 -3.5,3.51l0 107.8c0,1.93 1.58,3.51 3.5,3.51l31.04 0c1.93,0 3.5,-1.58 3.5,-3.51l0 -107.8c0,-1.93 -1.58,-3.51 -3.5,-3.51z"/>
    <path class="fil2" d="M510.52 83.28c0,0 2.13,59.41 79.69,45.16l0 -21.21 0 -0.1 0 -15.91 0 -15.16c0,-1.92 -1.58,-3.51 -3.5,-3.51l-16.45 0 0 -19.53 9.06 0c0,0 15.99,0.31 18.91,8.99 -0.04,1.99 7.02,2.55 7.11,-1.04 1.19,-22.84 -14.05,-45.14 -38.6,-45.14l-2.07 0 -2.07 0 -26.88 0c-1.94,0 -3.5,1.57 -3.5,3.5 0,19.56 0,42.45 0,62.01l37.12 0 0 9.45 -37.12 0c-1.4,-0.37 -10.72,0.43 -14.59,-8.56 -0.55,-3.36 -7.23,-3 -7.1,1.04z"/>
    <path class="fil2" d="M49.35 0l31.15 0 0.31 0.01 0.1 0c0,0 2.48,-0.35 3.02,2.7 0.06,0.26 0.09,0.54 0.09,0.8l0 121.78 -0 0.18 0 1.87c0,0 0.08,2.85 -2.36,3.29l-22.58 0c-13.99,0.2 -54.99,-0.78 -54.69,-53.82 -0.26,-25.51 15.28,-27.66 18.91,-14.04 3.18,11.94 9.53,19.07 22.54,18.48l0 -77.74c0,-1.93 1.58,-3.52 3.52,-3.52z"/>
    <path class="fil2" d="M513.4 5.41c0,4.14 0.07,12.59 -4.59,14.16 -1.3,0.39 -1.63,3.1 0.51,3.46 13.54,1.23 20.55,-5.41 21.41,-18.98 0.32,-5.02 -17.41,-5.7 -17.34,-0.13l0.02 1.49z"/>
    <path class="fil2" d="M465.26 15.84l31.16 0c1.94,0 3.53,1.58 3.53,3.52l0 107.77c0,1.94 -1.58,3.52 -3.53,3.52l-31.16 0c-1.94,0 -3.52,-1.59 -3.52,-3.52l0 -43.31c-53.01,-1.08 -52.15,-32.62 -52.67,-43.01l0 -22.59c0.44,-2.44 3.29,-2.36 3.29,-2.36l1.86 0 0.18 0 27.87 0c4.34,-0 4.73,1.04 4.73,3.29 0,12.54 -0.86,21.68 -0.3,33.76 0.4,13.68 9.02,19.66 15.04,20.48l0 -54.03c0,-1.94 1.58,-3.52 3.52,-3.52z"/>
    <g>
     <path class="fil2" d="M146.71 15.85l31.04 0c1.93,0 3.5,1.58 3.5,3.51l0 107.79c0,1.93 -1.58,3.51 -3.5,3.51l-31.04 0c-1.93,0 -3.51,-1.58 -3.51,-3.51l0 -107.79c0,-1.93 1.58,-3.51 3.51,-3.51z"/>
     <path class="fil2" d="M231.03 15.85l31.04 0c1.93,0 3.5,1.58 3.5,3.51l0 107.79c0,1.93 -1.58,3.51 -3.5,3.51l-31.04 0c-1.93,0 -3.5,-1.58 -3.5,-3.51l0 -107.79c0,-1.93 1.57,-3.51 3.5,-3.51z"/>
     <path class="fil2" d="M240.83 15.85l-9.58 -0.01c-30.66,-0.04 -23.6,33.7 -26.94,33.61 -2.98,-0.05 4.16,-32.38 -26.4,-33.6 -0.55,-0.02 -1.11,-0.01 -1.69,-0.01l-7.54 0 4.3 35.12c0,0 19.25,-11.09 28.22,17.24l6.02 0c0,0 6.64,-27.37 28.39,-17.24l5.22 -35.11z"/>
     <polygon class="fil2" points="202.59,38.29 204.23,49.26 206.44,37.49 206.91,42.05 205.84,52.23 202.83,52.23 "/>
    </g>
    <g>
     <path class="fil2" d="M279.65 15.85l31.04 0c1.93,0 3.5,1.58 3.5,3.51l0 107.79c0,1.93 -1.58,3.51 -3.5,3.51l-31.04 0c-1.93,0 -3.51,-1.58 -3.51,-3.51l0 -107.79c0,-1.93 1.58,-3.51 3.51,-3.51z"/>
     <path class="fil2" d="M363.97 15.85l31.04 0c1.93,0 3.5,1.58 3.5,3.51l0 107.79c0,1.93 -1.58,3.51 -3.5,3.51l-31.04 0c-1.93,0 -3.5,-1.58 -3.5,-3.51l0 -107.79c0,-1.93 1.57,-3.51 3.5,-3.51z"/>
     <path class="fil2" d="M373.77 15.85l-9.58 -0.01c-30.66,-0.04 -23.6,33.7 -26.94,33.61 -2.98,-0.05 4.16,-32.38 -26.4,-33.6 -0.55,-0.02 -1.11,-0.01 -1.69,-0.01l-7.54 0 4.3 35.12c0,0 19.25,-11.09 28.22,17.24l6.02 0c0,0 6.64,-27.37 28.39,-17.24l5.22 -35.11z"/>
     <polygon class="fil2" points="335.53,38.29 337.17,49.26 339.38,37.49 339.85,42.05 338.78,52.23 335.77,52.23 "/>
    </g>
   </g>
  </g>
 </g>
</svg>
