<svg width="101" height="99" viewBox="0 0 101 99" fill="none" xmlns="http://www.w3.org/2000/svg">
<g clip-path="url(#clip0_374_27743)">
<path fill-rule="evenodd" clip-rule="evenodd" d="M14.6733 4.13838V0.000762939H85.6932V4.13838H90.2375V8.22906H101V12.2337H90.2375V16.4261H85.6932V22.5816H81.188V24.584H82.8696V27.0087H85.6932V32.9061H82.7757V40.9936H85.6932V43.2228H82.7366V48.9873H85.6932V55.8077H82.7835V59.5777H85.6932V65.4048H82.8618V69.4094H85.6932V75.7762H82.8227V79.0769H85.6932V81.7519H90.2375V85.9442H101V90.0818H90.2375V94.1725H85.6932V98.1772H14.6733V94.1725H10.1289V90.0818H0V85.9442H10.1289V81.7519H14.6733V79.0769H17.5438V75.7762H14.6733V69.4094H17.5047V65.4048H14.6733V59.5777H17.5751L17.5673 55.8077H14.6733V48.9873H17.6298V43.2228H14.6733V40.9936H17.5907V32.9061H14.6733V27.0087H17.4969V24.584H19.1785V22.5816H14.6733V16.4261H10.1289V12.2337H0V8.22906H10.1289V4.13838H14.6733ZM62.9559 89.9489H74.9385V91.5288H62.9559V89.9489ZM50.895 91.9356H62.8776V93.5155H50.895V91.9356ZM38.9827 89.9489H50.9654V91.5288H38.9827V89.9489ZM26.9219 91.9356H38.9045V93.5155H26.9219V91.9356ZM50.8168 12.6874H62.7994V14.2673H50.8168V12.6874ZM38.7559 14.674H50.7386V16.254H38.7559V14.674ZM26.8436 12.6874H38.8263V14.2673H26.8436V12.6874ZM14.7828 14.674H26.7654V16.254H14.7828V14.674ZM57.6059 45.1312H62.4553V43.2697H57.6059V45.1312ZM54.751 48.9012H56.902V45.186H54.751V48.9012ZM49.7061 50.8175H54.4538V48.9873H49.7061V50.8175ZM45.9439 53.0623H49.7921V51.2321H45.9439V53.0623ZM41.9706 57.1295H45.8188V52.9919H41.9706V57.1295ZM39.1313 59.2492H41.2823V57.1843H39.1313V59.2492ZM23.5742 61.1811H28.1186V65.3187H32.4595V61.1811H36.8944V65.3187H32.4595V69.4094H36.8944V73.4141H32.4595V69.4094H28.1186V73.4141H23.5742V69.4094H28.1186V65.3187H23.5742V61.1811ZM63.4643 28.7685H68.0086V32.9061H72.3496V28.7685H76.7844V32.9061H72.3496V36.9968H76.7844V41.0015H72.3496V36.9968H68.0086V41.0015H63.4643V36.9968H68.0086V32.9061H63.4643V28.7685Z" fill="#1E4875"/>
</g>
<defs>
<clipPath id="clip0_374_27743">
<rect width="101" height="98.1627" fill="white"/>
</clipPath>
</defs>
</svg>
