<svg width="19" height="19" viewBox="0 0 19 19" fill="none" xmlns="http://www.w3.org/2000/svg">
<path d="M7.65164 4.68127H3.4724C3.17683 4.68127 2.89336 4.79869 2.68436 5.00769C2.47536 5.2167 2.35794 5.50016 2.35794 5.79574V10.2536C2.35794 10.5492 2.47536 10.8326 2.68436 11.0416C2.89336 11.2506 3.17683 11.3681 3.4724 11.3681H7.65164V11.9253C7.65164 12.5164 7.41681 13.0834 6.9988 13.5014C6.5808 13.9194 6.01386 14.1542 5.42271 14.1542C5.27493 14.1542 5.13319 14.2129 5.02869 14.3174C4.92419 14.4219 4.86548 14.5637 4.86548 14.7114C4.86548 14.8592 4.92419 15.001 5.02869 15.1055C5.13319 15.21 5.27493 15.2687 5.42271 15.2687C6.30915 15.2677 7.15902 14.9152 7.78583 14.2884C8.41263 13.6616 8.76518 12.8117 8.7661 11.9253V5.79574C8.7661 5.50016 8.64868 5.2167 8.43968 5.00769C8.23068 4.79869 7.94721 4.68127 7.65164 4.68127ZM7.65164 10.2536H3.4724V5.79574H7.65164V10.2536ZM15.7315 4.68127H11.5523C11.2567 4.68127 10.9732 4.79869 10.7642 5.00769C10.5552 5.2167 10.4378 5.50016 10.4378 5.79574V10.2536C10.4378 10.5492 10.5552 10.8326 10.7642 11.0416C10.9732 11.2506 11.2567 11.3681 11.5523 11.3681H15.7315V11.9253C15.7315 12.5164 15.4967 13.0834 15.0787 13.5014C14.6607 13.9194 14.0937 14.1542 13.5026 14.1542C13.3548 14.1542 13.213 14.2129 13.1085 14.3174C13.004 14.4219 12.9453 14.5637 12.9453 14.7114C12.9453 14.8592 13.004 15.001 13.1085 15.1055C13.213 15.21 13.3548 15.2687 13.5026 15.2687C14.389 15.2677 15.2389 14.9152 15.8657 14.2884C16.4925 13.6616 16.845 12.8117 16.846 11.9253V5.79574C16.846 5.50016 16.7285 5.2167 16.5195 5.00769C16.3105 4.79869 16.0271 4.68127 15.7315 4.68127ZM15.7315 10.2536H11.5523V5.79574H15.7315V10.2536Z" fill="#E5B12A"/>
</svg>
