<svg width="31" height="31" viewBox="0 0 31 31" fill="none" xmlns="http://www.w3.org/2000/svg">
<path fill-rule="evenodd" clip-rule="evenodd" d="M12.7448 15.3106C12.7448 13.8384 13.9646 12.6186 15.4368 12.6186C16.909 12.6186 18.1288 13.8384 18.1288 15.3106C18.1288 16.7827 16.909 18.0026 15.4368 18.0026C13.9646 18.0026 12.7448 16.7827 12.7448 15.3106Z" fill="#060606"/>
<path fill-rule="evenodd" clip-rule="evenodd" d="M18.5071 15.0583L24.9847 20.1478L30.7893 15.1845L25.1109 10.4314L18.5071 15.0583Z" fill="#D03236"/>
<path fill-rule="evenodd" clip-rule="evenodd" d="M12.24 15.0583L5.80447 20.1478L-0.00012207 15.1845L5.67828 10.4314L12.24 15.0583Z" fill="#D03236"/>
<path fill-rule="evenodd" clip-rule="evenodd" d="M15.1845 12.2401L20.274 5.80454L15.3107 -4.57764e-05L10.5997 5.67836L15.1845 12.2401Z" fill="#D03236"/>
<path fill-rule="evenodd" clip-rule="evenodd" d="M15.6893 30.5372L10.5997 24.1017L15.5631 18.2971L20.274 23.9755L15.6893 30.5372Z" fill="#D03236"/>
</svg>
