<svg width="84" height="126" viewBox="0 0 84 126" fill="none" xmlns="http://www.w3.org/2000/svg">
<g clip-path="url(#clip0_374_27754)">
<path fill-rule="evenodd" clip-rule="evenodd" d="M15.1777 41.9362V38.0894H26.3396V41.9572H30.3125V45.6148H34.0542V91.3136H30.0813V106.364H26.4868V121.688H22.598V125.556H19.0455V121.583H15.1987V106.406H11.6042V91.1875H7.6523V45.6148H11.436V41.9152L15.1356 41.8941L15.1777 41.9362ZM21.7992 83.0946H25.4988V86.6681H21.7992V83.0946ZM15.472 49.903H19.1716V57.4915H15.472V49.903ZM25.8351 87.1305H29.5348V90.7041H25.8351V87.1305ZM11.7093 46.2244H15.4089V49.7979H11.7093V46.2244Z" fill="#1E4875"/>
<path fill-rule="evenodd" clip-rule="evenodd" d="M18.9615 34.2426H22.7452V26.7593H26.5079V23.0386H22.7452V15.1559H19.0035V11.5403H15.3459V7.81967H11.1628V0H7.37908V7.50436H0.000843763V11.0358H11.6883V15.1559H15.3459V18.7924H18.9404L18.9615 34.2426Z" fill="#1E4875"/>
<path fill-rule="evenodd" clip-rule="evenodd" d="M26.676 22.6602H34.0752V19.0447H30.2915V15.1769H26.76L26.676 22.6602Z" fill="#1E4875"/>
<path fill-rule="evenodd" clip-rule="evenodd" d="M15.1567 4.01492H18.8563V7.58843H15.1567V4.01492Z" fill="#1E4875"/>
<path fill-rule="evenodd" clip-rule="evenodd" d="M26.4447 26.7592H30.1444V30.3328H26.4447V26.7592Z" fill="#1E4875"/>
<path fill-rule="evenodd" clip-rule="evenodd" d="M30.2285 11.6244H33.9281V15.1979H30.2285V11.6244Z" fill="#1E4875"/>
<path fill-rule="evenodd" clip-rule="evenodd" d="M26.5919 8.13498H30.2915V11.6875H26.5919V8.13498Z" fill="#1E4875"/>
<path fill-rule="evenodd" clip-rule="evenodd" d="M34.2854 11.2881H41.6847V7.67257H37.901V3.78375H34.3695L34.2854 11.2881Z" fill="#1E4875"/>
<path fill-rule="evenodd" clip-rule="evenodd" d="M41.8318 4.05698H45.5315V7.60946H41.8318V4.05698Z" fill="#1E4875"/>
<path fill-rule="evenodd" clip-rule="evenodd" d="M57.5342 85.9743H44.4594V90.3256H40.0661V94.7399H35.6518V112.418H40.0451V116.77H44.5014V121.247H48.8948V125.577H57.7234V121.184H62.2008V125.598H70.7983V121.163H75.4018V116.812H79.753V112.376H84.0202V94.7399H79.732V90.3676H75.2126V85.9323H61.9696V90.3886H57.6604V85.9743H57.5553H57.5342ZM48.7686 107.962H53.0148V112.208H48.7686V107.962ZM44.5645 99.1542H48.8107V107.836H44.5645V99.1542Z" fill="#1E4875"/>
<path fill-rule="evenodd" clip-rule="evenodd" d="M57.7655 85.0915H61.8855V81.8123H70.9034V77.2087H75.1495V72.8575H79.669V63.9657C79.669 63.9657 66.5941 63.7345 66.5311 63.9657C66.468 64.197 66.5311 68.4011 66.5311 68.4011H62.0537V72.8154H57.7445L57.7655 85.1125V85.0915ZM66.5311 68.6744H70.9034V72.8575H66.5311V68.6744ZM62.0747 73.0046H66.447V77.1877H62.0747V73.0046Z" fill="#1E4875"/>
</g>
<defs>
<clipPath id="clip0_374_27754">
<rect width="84" height="125.577" fill="white"/>
</clipPath>
</defs>
</svg>
