<svg width="103" height="99" viewBox="0 0 103 99" fill="none" xmlns="http://www.w3.org/2000/svg">
<g clip-path="url(#clip0_374_27769)">
<path fill-rule="evenodd" clip-rule="evenodd" d="M8.7116 30.0839V42.9399H12.9913V51.5669H17.3217V55.8973H25.7458V60.1094H34.3897V72.9992H38.7878V85.7536H42.8983V94.4145H47.2118V98.6434H55.8558V94.3299H60.1862V85.8044H64.5336V72.7793H68.7794V60.1432H77.3388V55.6605H85.8982V51.4316H90.1779V43.0414H94.6098V29.9486H90.1271V34.1775H85.7121V38.5925H77.2711V42.9399H73.0253V47.2026H68.7625V42.906H72.7885V38.5925H77.0512V34.3974H81.5677V30.1516H85.932V26.0241H90.2286V21.626H94.17V25.855H98.8895V21.5415H102.966V4.38888H98.6526V8.63474H94.3222V17.2279H90.2286V0.159945H85.729V12.9821H77.4234V8.46558H72.9069V4.27047H68.6441V13.0159H72.8392V17.1772H81.3986V25.7027H77.4572V21.4061H73.0929V17.414H68.6441V30.0501H73.076V34.3298H68.6949V30.2192H64.3137V38.5925C64.3137 38.5925 60.1693 38.8801 60.1693 38.5925C60.1693 38.305 60.1693 30.1516 60.1693 30.1516H55.7543V42.7707H47.3979V30.1008H42.8307V38.5756H38.7709V30.0162H34.3897V17.2618H30.0085V21.3385H25.695V25.8042H21.5507V17.3802H29.6364H29.8732V12.9652H34.5589V4.27047H30.1439V8.49941H25.7627V13.0159H17.2541V0.0415344H12.839V17.1095H8.88076V8.68548H4.49958V4.3043H0.0169067V21.5753H4.44883V25.8888H8.91459V21.5076H13.0589V25.8719H17.1864V30.1516H21.6691V34.4143H25.8811V38.5418H30.0762V42.7707H34.4912V47.2365H30.1608V42.9399H25.9318V38.7109H17.271V34.3636H12.9575V30.0332H8.7116V30.1685V30.0839ZM29.8055 30.067H34.2375V34.3467H29.8055V30.067Z" fill="#1E4875"/>
</g>
<defs>
<clipPath id="clip0_374_27769">
<rect width="103" height="98.6512" fill="white"/>
</clipPath>
</defs>
</svg>
