<svg width="26" height="26" viewBox="0 0 26 26" fill="none" xmlns="http://www.w3.org/2000/svg">
<path d="M8.13534 13.3865H18.552M19.5937 8.17814H19.603M7.927 19.6365C7.927 19.6365 8.76034 21.5896 7.09367 22.7615M18.7603 19.6365C18.7603 19.6365 17.927 21.5896 19.5937 22.7615M13.3437 19.6365V22.7615M17.5103 4.01147C19.9468 4.01147 21.1645 4.01147 22.0541 4.56981C22.5181 4.86131 22.9105 5.25368 23.202 5.71772C23.7603 6.60731 23.7603 7.82397 23.7603 10.2615C23.7603 12.699 23.7603 13.9156 23.201 14.8052C22.9099 15.2687 22.5183 15.6606 22.0551 15.9521C21.1635 16.5115 19.9458 16.5115 17.5103 16.5115H9.177C6.74054 16.5115 5.52284 16.5115 4.63325 15.9521C4.16943 15.6612 3.77708 15.2696 3.48534 14.8063C2.927 13.9146 2.927 12.6969 2.927 10.2615C2.927 7.82606 2.927 6.60731 3.48534 5.71772C3.77684 5.25368 4.1692 4.86131 4.63325 4.56981C5.52284 4.01147 6.7395 4.01147 9.177 4.01147H17.5103Z" stroke="#E5B12A" stroke-width="1.5" stroke-linecap="round" stroke-linejoin="round"/>
</svg>
