<svg width="21" height="21" viewBox="0 0 21 21" fill="none" xmlns="http://www.w3.org/2000/svg">
<path d="M16.2628 6.42298H1.8758V4.54642C1.8758 4.38052 1.80989 4.22142 1.69259 4.10411C1.57528 3.9868 1.41618 3.9209 1.25028 3.9209C1.08438 3.9209 0.925275 3.9868 0.807967 4.10411C0.690659 4.22142 0.624756 4.38052 0.624756 4.54642V17.0568C0.624756 17.2227 0.690659 17.3818 0.807967 17.4991C0.925275 17.6165 1.08438 17.6824 1.25028 17.6824C1.41618 17.6824 1.57528 17.6165 1.69259 17.4991C1.80989 17.3818 1.8758 17.2227 1.8758 17.0568V14.5548H18.1393V17.0568C18.1393 17.2227 18.2052 17.3818 18.3225 17.4991C18.4399 17.6165 18.599 17.6824 18.7649 17.6824C18.9308 17.6824 19.0899 17.6165 19.2072 17.4991C19.3245 17.3818 19.3904 17.2227 19.3904 17.0568V9.55059C19.3904 8.72109 19.0609 7.92558 18.4743 7.33904C17.8878 6.7525 17.0923 6.42298 16.2628 6.42298ZM1.8758 7.67402H7.50549V13.3037H1.8758V7.67402ZM8.75653 13.3037V7.67402H16.2628C16.7605 7.67402 17.2378 7.87173 17.5897 8.22366C17.9416 8.57558 18.1393 9.05289 18.1393 9.55059V13.3037H8.75653Z" fill="#8B6B30"/>
</svg>
