<svg width="29" height="28" viewBox="0 0 29 28" fill="none" xmlns="http://www.w3.org/2000/svg">
<path d="M15.5102 4.26147H13.1772C11.3207 4.26147 9.54025 4.97263 8.2275 6.2385C6.91474 7.50437 6.17725 9.22126 6.17725 11.0115H15.5102V4.26147Z" stroke="#E5B12A" stroke-linecap="round" stroke-linejoin="round"/>
<path d="M21.3438 23.8926L20.1191 17.5142M7.34377 23.8926L8.56905 17.5255M23.6773 11.0115H5.01025M22.5103 13.2617V11.0115H6.17729V13.2617C6.17729 14.4551 6.66894 15.5996 7.54407 16.4435C8.41921 17.2874 9.60615 17.7615 10.8438 17.7615H17.8438C19.0814 17.7613 20.2682 17.2872 21.1433 16.4433C22.0184 15.5995 22.5101 14.455 22.5103 13.2617Z" stroke="#E5B12A" stroke-linecap="round" stroke-linejoin="round"/>
<path d="M23.6773 23.3866C17.5516 24.8823 11.1359 24.8823 5.01025 23.3866" stroke="#E5B12A" stroke-linecap="round" stroke-linejoin="round"/>
</svg>
