<svg width="25" height="25" viewBox="0 0 25 25" fill="none" xmlns="http://www.w3.org/2000/svg">
<g clip-path="url(#clip0_473_8969)">
<path d="M19.3438 22.2549V20.7549M5.34375 22.2549V20.7549M12.3438 20.2549V2.25488M15.3438 9.25488V13.2549M9.34375 9.25488V13.2549" stroke="#E5B12A" stroke-width="1.5" stroke-linecap="round"/>
<path d="M2.34375 10.2549C2.34375 6.48388 2.34375 4.59788 3.51575 3.42688C4.68775 2.25588 6.57275 2.25488 10.3438 2.25488H14.3438C18.1147 2.25488 20.0007 2.25488 21.1717 3.42688C22.3427 4.59888 22.3438 6.48388 22.3438 10.2549V12.2549C22.3438 16.0259 22.3437 17.9119 21.1717 19.0829C19.9997 20.2539 18.1147 20.2549 14.3438 20.2549H10.3438C6.57275 20.2549 4.68675 20.2549 3.51575 19.0829C2.34475 17.9109 2.34375 16.0259 2.34375 12.2549V10.2549Z" stroke="#E5B12A" stroke-width="1.5"/>
</g>
<defs>
<clipPath id="clip0_473_8969">
<rect width="24" height="24" fill="white" transform="translate(0.34375 0.254883)"/>
</clipPath>
</defs>
</svg>
