<svg width="29" height="26" viewBox="0 0 29 26" fill="none" xmlns="http://www.w3.org/2000/svg">
<g clip-path="url(#clip0_122_3093)">
<path d="M4.77344 3.09253C4.04616 3.09253 3.34868 3.38144 2.83442 3.8957C2.32016 4.40996 2.03125 5.10744 2.03125 5.83472V19.5457C2.03125 20.5526 2.43128 21.5184 3.14333 22.2304C3.85538 22.9425 4.82113 23.3425 5.82812 23.3425H10.0469C11.0539 23.3425 12.0196 22.9425 12.7317 22.2304C13.4437 21.5184 13.8438 20.5526 13.8438 19.5457V9.84253H23.9688V22.4988C23.9688 22.7226 24.0576 22.9372 24.2159 23.0954C24.3741 23.2536 24.5887 23.3425 24.8125 23.3425C25.0363 23.3425 25.2509 23.2536 25.4091 23.0954C25.5674 22.9372 25.6562 22.7226 25.6562 22.4988V5.83472C25.6562 5.10744 25.3673 4.40996 24.8531 3.8957C24.3388 3.38144 23.6413 3.09253 22.9141 3.09253H4.77344ZM3.71875 9.84253H12.1562V19.5457C12.1562 20.1051 11.934 20.6416 11.5384 21.0372C11.1428 21.4328 10.6063 21.655 10.0469 21.655H5.82812C5.26868 21.655 4.73216 21.4328 4.33657 21.0372C3.94099 20.6416 3.71875 20.1051 3.71875 19.5457V9.84253ZM3.71875 8.15503V5.83472C3.71875 5.25253 4.19125 4.78003 4.77344 4.78003H22.9141C23.4963 4.78003 23.9688 5.25253 23.9688 5.83472V8.15503H3.71875ZM6.25 12.3738C6.02622 12.3738 5.81161 12.4627 5.65338 12.6209C5.49515 12.7791 5.40625 12.9938 5.40625 13.2175C5.40625 13.4413 5.49515 13.6559 5.65338 13.8142C5.81161 13.9724 6.02622 14.0613 6.25 14.0613H9.625C9.84878 14.0613 10.0634 13.9724 10.2216 13.8142C10.3799 13.6559 10.4688 13.4413 10.4688 13.2175C10.4688 12.9938 10.3799 12.7791 10.2216 12.6209C10.0634 12.4627 9.84878 12.3738 9.625 12.3738H6.25Z" fill="#E5B12A"/>
</g>
<defs>
<clipPath id="clip0_122_3093">
<rect width="28" height="25" fill="white" transform="translate(0.34375 0.254883)"/>
</clipPath>
</defs>
</svg>
