<svg width="21" height="21" viewBox="0 0 21 21" fill="none" xmlns="http://www.w3.org/2000/svg">
<path d="M18.7194 17.3701C17.5286 15.3113 15.6935 13.8351 13.5518 13.1353C14.6112 12.5047 15.4342 11.5437 15.8946 10.4001C16.3549 9.25638 16.4271 7.99321 16.1001 6.80453C15.7731 5.61585 15.0649 4.56738 14.0843 3.82014C13.1037 3.07291 11.9049 2.66821 10.6721 2.66821C9.43924 2.66821 8.24048 3.07291 7.25989 3.82014C6.27931 4.56738 5.57112 5.61585 5.24409 6.80453C4.91705 7.99321 4.98925 9.25638 5.44961 10.4001C5.90996 11.5437 6.733 12.5047 7.79235 13.1353C5.65072 13.8343 3.8156 15.3106 2.62476 17.3701C2.58109 17.4413 2.55213 17.5205 2.53957 17.6031C2.52702 17.6857 2.53114 17.7699 2.55167 17.8509C2.57221 17.9319 2.60876 18.0079 2.65916 18.0745C2.70956 18.1411 2.77279 18.197 2.84512 18.2388C2.91745 18.2805 2.99742 18.3074 3.08031 18.3178C3.16319 18.3282 3.24731 18.3218 3.32771 18.2992C3.40811 18.2765 3.48315 18.238 3.54841 18.1858C3.61368 18.1337 3.66784 18.069 3.7077 17.9956C5.1808 15.4497 7.78453 13.9297 10.6721 13.9297C13.5596 13.9297 16.1634 15.4497 17.6365 17.9956C17.6763 18.069 17.7305 18.1337 17.7958 18.1858C17.861 18.238 17.9361 18.2765 18.0165 18.2992C18.0969 18.3218 18.181 18.3282 18.2639 18.3178C18.3468 18.3074 18.4267 18.2805 18.4991 18.2388C18.5714 18.197 18.6346 18.1411 18.685 18.0745C18.7354 18.0079 18.772 17.9319 18.7925 17.8509C18.813 17.7699 18.8172 17.6857 18.8046 17.6031C18.792 17.5205 18.7631 17.4413 18.7194 17.3701ZM6.29344 8.30003C6.29344 7.43401 6.55025 6.58745 7.03138 5.86738C7.51251 5.14732 8.19636 4.5861 8.99645 4.25469C9.79655 3.92328 10.6769 3.83657 11.5263 4.00552C12.3757 4.17447 13.1559 4.59149 13.7683 5.20386C14.3806 5.81622 14.7976 6.59642 14.9666 7.4458C15.1356 8.29517 15.0488 9.17557 14.7174 9.97566C14.386 10.7758 13.8248 11.4596 13.1047 11.9407C12.3847 12.4219 11.5381 12.6787 10.6721 12.6787C9.51118 12.6774 8.39818 12.2157 7.57729 11.3948C6.7564 10.5739 6.29469 9.46094 6.29344 8.30003Z" fill="#8B6B30"/>
</svg>
