<svg width="25" height="25" viewBox="0 0 25 25" fill="none" xmlns="http://www.w3.org/2000/svg">
<path d="M9.34375 10.2549V8.25488C9.34375 7.72445 9.55446 7.21574 9.92954 6.84067C10.3046 6.4656 10.8133 6.25488 11.3438 6.25488H17.3438C17.8742 6.25488 18.3829 6.4656 18.758 6.84067C19.133 7.21574 19.3438 7.72445 19.3438 8.25488V10.2549M7.34375 10.2549H21.3438" stroke="#E5B12A" stroke-width="1.5" stroke-linecap="round" stroke-linejoin="round"/>
<path d="M3.34375 22.2549V4.25488C3.34375 3.72445 3.55446 3.21574 3.92954 2.84067C4.30461 2.4656 4.81332 2.25488 5.34375 2.25488H12.3438C12.8742 2.25488 13.3829 2.4656 13.758 2.84067C14.133 3.21574 14.3438 3.72445 14.3438 4.25488V6.25488M10.3438 14.2549H10.3538M14.3438 14.2549H14.3538M18.3438 14.2549H18.3538M9.34375 18.2549H9.35375M14.3438 18.2549H14.3538M19.3438 18.2549H19.3538M8.34375 22.2549H8.35375M14.3438 22.2549H14.3538M20.3438 22.2549H20.3538" stroke="#E5B12A" stroke-width="1.5" stroke-linecap="round" stroke-linejoin="round"/>
</svg>
