<svg width="32" height="527" viewBox="0 0 32 527" fill="none" xmlns="http://www.w3.org/2000/svg">
<path fill-rule="evenodd" clip-rule="evenodd" d="M29.4858 449.772L23.2606 454.693L17.6243 449.898L23.1344 445.313L29.4858 449.772Z" fill="#5298D5"/>
<path fill-rule="evenodd" clip-rule="evenodd" d="M30.9579 465.629L24.9851 459.404L31 453.725V465.629H30.9579Z" fill="#5298D5"/>
<path fill-rule="evenodd" clip-rule="evenodd" d="M30.9579 434.377L24.9851 440.602L31 446.28V434.419L30.9579 434.377Z" fill="#5298D5"/>
<path fill-rule="evenodd" clip-rule="evenodd" d="M31.0001 455.071V444.892H30.2009V455.113L31.0001 455.071Z" fill="#5298D5"/>
<path fill-rule="evenodd" clip-rule="evenodd" d="M1.7666 449.772L8.03387 454.693L13.6281 449.898L8.16006 445.313L1.7666 449.772Z" fill="#5298D5"/>
<path fill-rule="evenodd" clip-rule="evenodd" d="M0.294434 465.629L6.26727 459.404L0.294434 453.725V465.629Z" fill="#5298D5"/>
<path fill-rule="evenodd" clip-rule="evenodd" d="M0.294434 434.377L6.26727 440.602L0.294434 446.28V434.419V434.377Z" fill="#5298D5"/>
<path fill-rule="evenodd" clip-rule="evenodd" d="M0.294434 455.071V444.892H1.05155V455.113L0.294434 455.071Z" fill="#5298D5"/>
<path fill-rule="evenodd" clip-rule="evenodd" d="M12.9973 423.651C12.9973 422.179 14.2171 420.959 15.6893 420.959C17.1615 420.959 18.3813 422.179 18.3813 423.651C18.3813 425.123 17.1615 426.343 15.6893 426.343C14.2171 426.343 12.9973 425.123 12.9973 423.651Z" fill="#060606"/>
<path fill-rule="evenodd" clip-rule="evenodd" d="M18.7595 423.44L25.2371 428.53L31.0417 423.525L25.3633 418.814L18.7595 423.44Z" fill="#D03236"/>
<path fill-rule="evenodd" clip-rule="evenodd" d="M12.4925 423.44L6.05703 428.53L0.252441 423.525L5.93084 418.814L12.4925 423.44Z" fill="#D03236"/>
<path fill-rule="evenodd" clip-rule="evenodd" d="M15.4371 420.622L20.5266 414.145L15.5633 408.34L10.8523 414.018L15.4371 420.622Z" fill="#D03236"/>
<path fill-rule="evenodd" clip-rule="evenodd" d="M15.9418 438.919L10.8523 432.442L15.8156 426.637L20.5266 432.316L15.9418 438.919Z" fill="#D03236"/>
<path fill-rule="evenodd" clip-rule="evenodd" d="M29.4858 395.931L23.2606 400.853L17.6243 396.058L23.1344 391.473L29.4858 395.931Z" fill="#5298D5"/>
<path fill-rule="evenodd" clip-rule="evenodd" d="M30.9579 411.789L24.9851 405.564L31 399.885V411.747L30.9579 411.789Z" fill="#5298D5"/>
<path fill-rule="evenodd" clip-rule="evenodd" d="M30.9579 380.537L24.9851 386.762L31 392.441V380.537H30.9579Z" fill="#5298D5"/>
<path fill-rule="evenodd" clip-rule="evenodd" d="M31.0001 401.189V391.052H30.2009V401.274L31.0001 401.189Z" fill="#5298D5"/>
<path fill-rule="evenodd" clip-rule="evenodd" d="M1.7666 395.931L8.03387 400.853L13.6281 396.058L8.16006 391.473L1.7666 395.931Z" fill="#5298D5"/>
<path fill-rule="evenodd" clip-rule="evenodd" d="M0.294434 411.789L6.26727 405.564L0.294434 399.885V411.747V411.789Z" fill="#5298D5"/>
<path fill-rule="evenodd" clip-rule="evenodd" d="M0.294434 380.537L6.26727 386.762L0.294434 392.44V380.537Z" fill="#5298D5"/>
<path fill-rule="evenodd" clip-rule="evenodd" d="M0.294434 401.189V391.052H1.05155V401.274L0.294434 401.189Z" fill="#5298D5" stroke="#E5B12A" stroke-width="0.462684" stroke-miterlimit="22.9256"/>
<path fill-rule="evenodd" clip-rule="evenodd" d="M12.9973 369.811C12.9973 368.339 14.2171 367.119 15.6893 367.119C17.1615 367.119 18.3813 368.339 18.3813 369.811C18.3813 371.283 17.1615 372.503 15.6893 372.503C14.2171 372.503 12.9973 371.283 12.9973 369.811Z" fill="#060606"/>
<path fill-rule="evenodd" clip-rule="evenodd" d="M18.7595 369.559L25.2371 374.648L31.0417 369.685L25.3633 364.974L18.7595 369.559Z" fill="#D03236"/>
<path fill-rule="evenodd" clip-rule="evenodd" d="M12.4925 369.559L6.05703 374.648L0.252441 369.685L5.93084 364.974L12.4925 369.559Z" fill="#D03236"/>
<path fill-rule="evenodd" clip-rule="evenodd" d="M15.4371 366.741L20.5266 360.305L15.5633 354.5L10.8523 360.179L15.4371 366.741Z" fill="#D03236"/>
<path fill-rule="evenodd" clip-rule="evenodd" d="M15.9418 385.038L10.8523 378.602L15.8156 372.798L20.5266 378.476L15.9418 385.038Z" fill="#D03236"/>
<path fill-rule="evenodd" clip-rule="evenodd" d="M29.4858 344.111L23.2606 349.074L17.6243 344.237L23.1344 339.695L29.4858 344.111Z" fill="#5298D5"/>
<path fill-rule="evenodd" clip-rule="evenodd" d="M30.9579 360.011L24.9851 353.743L31 348.065V359.969L30.9579 360.011Z" fill="#5298D5"/>
<path fill-rule="evenodd" clip-rule="evenodd" d="M30.9579 328.716L24.9851 334.984L31 340.62V328.758L30.9579 328.716Z" fill="#5298D5"/>
<path fill-rule="evenodd" clip-rule="evenodd" d="M31.0001 349.411V339.232H30.2009V349.453L31.0001 349.411Z" fill="#5298D5"/>
<path fill-rule="evenodd" clip-rule="evenodd" d="M1.7666 344.111L8.03387 349.074L13.6281 344.237L8.16006 339.695L1.7666 344.111Z" fill="#5298D5"/>
<path fill-rule="evenodd" clip-rule="evenodd" d="M0.294434 360.011L6.26727 353.743L0.294434 348.065V359.969V360.011Z" fill="#5298D5"/>
<path fill-rule="evenodd" clip-rule="evenodd" d="M0.294434 328.716L6.26727 334.984L0.294434 340.62V328.758V328.716Z" fill="#5298D5"/>
<path fill-rule="evenodd" clip-rule="evenodd" d="M0.294434 349.411V339.232H1.05155V349.453L0.294434 349.411Z" fill="#5298D5"/>
<path fill-rule="evenodd" clip-rule="evenodd" d="M12.9973 318.032C12.9973 316.56 14.2171 315.34 15.6893 315.34C17.1615 315.34 18.3813 316.56 18.3813 318.032C18.3813 319.505 17.1615 320.724 15.6893 320.724C14.2171 320.724 12.9973 319.505 12.9973 318.032Z" fill="#060606"/>
<path fill-rule="evenodd" clip-rule="evenodd" d="M18.7595 317.78L25.2371 322.87L31.0417 317.906L25.3633 313.153L18.7595 317.78Z" fill="#D03236"/>
<path fill-rule="evenodd" clip-rule="evenodd" d="M12.4925 317.78L6.05703 322.87L0.252441 317.906L5.93084 313.153L12.4925 317.78Z" fill="#D03236"/>
<path fill-rule="evenodd" clip-rule="evenodd" d="M15.4371 314.962L20.5266 308.526L15.5633 302.722L10.8523 308.4L15.4371 314.962Z" fill="#D03236"/>
<path fill-rule="evenodd" clip-rule="evenodd" d="M15.9418 333.259L10.8523 326.823L15.8156 321.019L20.5266 326.697L15.9418 333.259Z" fill="#D03236"/>
<path fill-rule="evenodd" clip-rule="evenodd" d="M29.4858 290.271L23.2606 295.193L17.6243 290.398L23.1344 285.813L29.4858 290.271Z" fill="#5298D5"/>
<path fill-rule="evenodd" clip-rule="evenodd" d="M30.9579 306.129L24.9851 299.904L31 294.225V306.129H30.9579Z" fill="#5298D5"/>
<path fill-rule="evenodd" clip-rule="evenodd" d="M30.9579 274.877L24.9851 281.102L31 286.78V274.919L30.9579 274.877Z" fill="#5298D5"/>
<path fill-rule="evenodd" clip-rule="evenodd" d="M31.0001 295.571V285.392H30.2009V295.613L31.0001 295.571Z" fill="#5298D5"/>
<path fill-rule="evenodd" clip-rule="evenodd" d="M1.7666 290.271L8.03387 295.193L13.6281 290.398L8.16006 285.813L1.7666 290.271Z" fill="#5298D5"/>
<path fill-rule="evenodd" clip-rule="evenodd" d="M0.294434 306.129L6.26727 299.904L0.294434 294.225V306.129Z" fill="#5298D5"/>
<path fill-rule="evenodd" clip-rule="evenodd" d="M0.294434 274.877L6.26727 281.102L0.294434 286.78V274.919V274.877Z" fill="#5298D5"/>
<path fill-rule="evenodd" clip-rule="evenodd" d="M0.294434 295.571V285.392H1.05155V295.613L0.294434 295.571Z" fill="#5298D5"/>
<path fill-rule="evenodd" clip-rule="evenodd" d="M12.9973 264.151C12.9973 262.679 14.2171 261.459 15.6893 261.459C17.1615 261.459 18.3813 262.679 18.3813 264.151C18.3813 265.623 17.1615 266.843 15.6893 266.843C14.2171 266.843 12.9973 265.623 12.9973 264.151Z" fill="#060606"/>
<path fill-rule="evenodd" clip-rule="evenodd" d="M18.7595 263.941L25.2371 269.03L31.0417 264.025L25.3633 259.314L18.7595 263.941Z" fill="#D03236"/>
<path fill-rule="evenodd" clip-rule="evenodd" d="M12.4925 263.941L6.05703 269.03L0.252441 264.025L5.93084 259.314L12.4925 263.941Z" fill="#D03236"/>
<path fill-rule="evenodd" clip-rule="evenodd" d="M15.4371 261.122L20.5266 254.645L15.5633 248.84L10.8523 254.519L15.4371 261.122Z" fill="#D03236"/>
<path fill-rule="evenodd" clip-rule="evenodd" d="M15.9418 279.42L10.8523 272.942L15.8156 267.137L20.5266 272.816L15.9418 279.42Z" fill="#D03236"/>
<path fill-rule="evenodd" clip-rule="evenodd" d="M29.4858 237.651L23.2606 242.573L17.6243 237.736L23.1344 233.193L29.4858 237.651Z" fill="#5298D5"/>
<path fill-rule="evenodd" clip-rule="evenodd" d="M30.9579 253.509L24.9851 247.242L31 241.563V253.467L30.9579 253.509Z" fill="#5298D5"/>
<path fill-rule="evenodd" clip-rule="evenodd" d="M30.9579 222.215L24.9851 228.482L31 234.16V222.257L30.9579 222.215Z" fill="#5298D5"/>
<path fill-rule="evenodd" clip-rule="evenodd" d="M31.0001 242.909V232.772H30.2009V242.993L31.0001 242.909Z" fill="#5298D5"/>
<path fill-rule="evenodd" clip-rule="evenodd" d="M1.7666 237.651L8.03387 242.573L13.6281 237.736L8.16006 233.193L1.7666 237.651Z" fill="#5298D5"/>
<path fill-rule="evenodd" clip-rule="evenodd" d="M0.294434 253.509L6.26727 247.242L0.294434 241.563V253.467V253.509Z" fill="#5298D5"/>
<path fill-rule="evenodd" clip-rule="evenodd" d="M0.294434 222.215L6.26727 228.482L0.294434 234.16V222.257V222.215Z" fill="#5298D5"/>
<path fill-rule="evenodd" clip-rule="evenodd" d="M0.294434 242.909V232.772H1.05155V242.993L0.294434 242.909Z" fill="#5298D5"/>
<path fill-rule="evenodd" clip-rule="evenodd" d="M12.9973 211.531C12.9973 210.059 14.2171 208.839 15.6893 208.839C17.1615 208.839 18.3813 210.059 18.3813 211.531C18.3813 213.003 17.1615 214.223 15.6893 214.223C14.2171 214.223 12.9973 213.003 12.9973 211.531Z" fill="#060606"/>
<path fill-rule="evenodd" clip-rule="evenodd" d="M18.7595 211.279L25.2371 216.368L31.0417 211.405L25.3633 206.652L18.7595 211.279Z" fill="#D03236"/>
<path fill-rule="evenodd" clip-rule="evenodd" d="M12.4925 211.279L6.05703 216.368L0.252441 211.405L5.93084 206.652L12.4925 211.279Z" fill="#D03236"/>
<path fill-rule="evenodd" clip-rule="evenodd" d="M15.4371 208.46L20.5266 202.025L15.5633 196.22L10.8523 201.899L15.4371 208.46Z" fill="#D03236"/>
<path fill-rule="evenodd" clip-rule="evenodd" d="M15.9418 226.758L10.8523 220.322L15.8156 214.517L20.5266 220.196L15.9418 226.758Z" fill="#D03236"/>
<path fill-rule="evenodd" clip-rule="evenodd" d="M29.4858 183.77L23.2606 188.691L17.6243 183.896L23.1344 179.311L29.4858 183.77Z" fill="#5298D5"/>
<path fill-rule="evenodd" clip-rule="evenodd" d="M30.9579 199.669L24.9851 193.402L31 187.724V199.627L30.9579 199.669Z" fill="#5298D5"/>
<path fill-rule="evenodd" clip-rule="evenodd" d="M30.9579 168.375L24.9851 174.6L31 180.279V168.417L30.9579 168.375Z" fill="#5298D5"/>
<path fill-rule="evenodd" clip-rule="evenodd" d="M31.0001 189.07V178.891H30.2009V189.112L31.0001 189.07Z" fill="#5298D5"/>
<path fill-rule="evenodd" clip-rule="evenodd" d="M1.7666 183.77L8.03387 188.691L13.6281 183.896L8.16006 179.311L1.7666 183.77Z" fill="#5298D5"/>
<path fill-rule="evenodd" clip-rule="evenodd" d="M0.294434 199.669L6.26727 193.402L0.294434 187.724V199.627V199.669Z" fill="#5298D5"/>
<path fill-rule="evenodd" clip-rule="evenodd" d="M0.294434 168.375L6.26727 174.6L0.294434 180.279V168.417V168.375Z" fill="#5298D5"/>
<path fill-rule="evenodd" clip-rule="evenodd" d="M0.294434 189.07V178.891H1.05155V189.112L0.294434 189.07Z" fill="#5298D5"/>
<path fill-rule="evenodd" clip-rule="evenodd" d="M12.9973 157.649C12.9973 156.177 14.2171 154.957 15.6893 154.957C17.1615 154.957 18.3813 156.177 18.3813 157.649C18.3813 159.121 17.1615 160.341 15.6893 160.341C14.2171 160.341 12.9973 159.121 12.9973 157.649Z" fill="#060606"/>
<path fill-rule="evenodd" clip-rule="evenodd" d="M18.7595 157.439L25.2371 162.529L31.0417 157.565L25.3633 152.812L18.7595 157.439Z" fill="#D03236"/>
<path fill-rule="evenodd" clip-rule="evenodd" d="M12.4925 157.439L6.05703 162.529L0.252441 157.565L5.93084 152.812L12.4925 157.439Z" fill="#D03236"/>
<path fill-rule="evenodd" clip-rule="evenodd" d="M15.4371 154.621L20.5266 148.143L15.5633 142.339L10.8523 148.017L15.4371 154.621Z" fill="#D03236"/>
<path fill-rule="evenodd" clip-rule="evenodd" d="M15.9418 172.918L10.8523 166.44L15.8156 160.636L20.5266 166.314L15.9418 172.918Z" fill="#D03236"/>
<path fill-rule="evenodd" clip-rule="evenodd" d="M29.4858 131.991L23.2606 136.912L17.6243 132.117L23.1344 127.533L29.4858 131.991Z" fill="#5298D5"/>
<path fill-rule="evenodd" clip-rule="evenodd" d="M30.9579 147.849L24.9851 141.623L31 135.945V147.849H30.9579Z" fill="#5298D5"/>
<path fill-rule="evenodd" clip-rule="evenodd" d="M30.9579 116.596L24.9851 122.822L31 128.5V116.596H30.9579Z" fill="#5298D5"/>
<path fill-rule="evenodd" clip-rule="evenodd" d="M31.0001 137.291V127.112H30.2009V137.333L31.0001 137.291Z" fill="#5298D5"/>
<path fill-rule="evenodd" clip-rule="evenodd" d="M1.7666 131.991L8.03387 136.912L13.6281 132.117L8.16006 127.533L1.7666 131.991Z" fill="#5298D5"/>
<path fill-rule="evenodd" clip-rule="evenodd" d="M0.294434 147.849L6.26727 141.623L0.294434 135.945V147.849Z" fill="#5298D5"/>
<path fill-rule="evenodd" clip-rule="evenodd" d="M0.294434 116.596L6.26727 122.822L0.294434 128.5V116.596Z" fill="#5298D5"/>
<path fill-rule="evenodd" clip-rule="evenodd" d="M0.294434 137.291V127.112H1.05155V137.333L0.294434 137.291Z" fill="#5298D5"/>
<path fill-rule="evenodd" clip-rule="evenodd" d="M12.9973 105.871C12.9973 104.398 14.2171 103.179 15.6893 103.179C17.1615 103.179 18.3813 104.398 18.3813 105.871C18.3813 107.343 17.1615 108.563 15.6893 108.563C14.2171 108.563 12.9973 107.343 12.9973 105.871Z" fill="#060606"/>
<path fill-rule="evenodd" clip-rule="evenodd" d="M18.7595 105.618L25.2371 110.708L31.0417 105.744L25.3633 101.033L18.7595 105.618Z" fill="#D03236"/>
<path fill-rule="evenodd" clip-rule="evenodd" d="M12.4925 105.618L6.05703 110.708L0.252441 105.744L5.93084 101.033L12.4925 105.618Z" fill="#D03236"/>
<path fill-rule="evenodd" clip-rule="evenodd" d="M15.4371 102.8L20.5266 96.3646L15.5633 90.5601L10.8523 96.2385L15.4371 102.8Z" fill="#D03236"/>
<path fill-rule="evenodd" clip-rule="evenodd" d="M15.9418 121.139L10.8523 114.662L15.8156 108.857L20.5266 114.536L15.9418 121.139Z" fill="#D03236"/>
<path fill-rule="evenodd" clip-rule="evenodd" d="M29.4858 78.1516L23.2606 83.0729L17.6243 78.2357L23.1344 73.693L29.4858 78.1516Z" fill="#5298D5"/>
<path fill-rule="evenodd" clip-rule="evenodd" d="M30.9579 94.0089L24.9851 87.7416L31 82.0632V93.9668L30.9579 94.0089Z" fill="#5298D5"/>
<path fill-rule="evenodd" clip-rule="evenodd" d="M30.9579 62.7147L24.9851 68.982L31 74.6604V62.7568L30.9579 62.7147Z" fill="#5298D5"/>
<path fill-rule="evenodd" clip-rule="evenodd" d="M31.0001 83.4093V73.2723H30.2009V83.4935L31.0001 83.4093Z" fill="#5298D5"/>
<path fill-rule="evenodd" clip-rule="evenodd" d="M1.7666 78.1516L8.03387 83.0729L13.6281 78.2357L8.16006 73.693L1.7666 78.1516Z" fill="#5298D5"/>
<path fill-rule="evenodd" clip-rule="evenodd" d="M0.294434 94.0089L6.26727 87.7416L0.294434 82.0632V93.9668V94.0089Z" fill="#5298D5"/>
<path fill-rule="evenodd" clip-rule="evenodd" d="M0.294434 62.7147L6.26727 68.982L0.294434 74.6604V62.7568V62.7147Z" fill="#5298D5"/>
<path fill-rule="evenodd" clip-rule="evenodd" d="M0.294434 83.4093V73.2723H1.05155V83.4935L0.294434 83.4093Z" fill="#5298D5"/>
<path fill-rule="evenodd" clip-rule="evenodd" d="M12.9973 52.0309C12.9973 50.5587 14.2171 49.3389 15.6893 49.3389C17.1615 49.3389 18.3813 50.5587 18.3813 52.0309C18.3813 53.503 17.1615 54.7228 15.6893 54.7228C14.2171 54.7228 12.9973 53.503 12.9973 52.0309Z" fill="#060606"/>
<path fill-rule="evenodd" clip-rule="evenodd" d="M18.7595 51.7786L25.2371 56.8681L31.0417 51.9048L25.3633 47.1517L18.7595 51.7786Z" fill="#D03236"/>
<path fill-rule="evenodd" clip-rule="evenodd" d="M12.4925 51.7786L6.05703 56.8681L0.252441 51.9048L5.93084 47.1517L12.4925 51.7786Z" fill="#D03236"/>
<path fill-rule="evenodd" clip-rule="evenodd" d="M15.4371 48.9604L20.5266 42.5249L15.5633 36.7203L10.8523 42.3987L15.4371 48.9604Z" fill="#D03236"/>
<path fill-rule="evenodd" clip-rule="evenodd" d="M15.9418 67.2576L10.8523 60.822L15.8156 55.0175L20.5266 60.6959L15.9418 67.2576Z" fill="#D03236"/>
<path fill-rule="evenodd" clip-rule="evenodd" d="M29.4858 25.2373L23.2606 30.1586L17.6243 25.3635L23.1344 20.7787L29.4858 25.2373Z" fill="#5298D5"/>
<path fill-rule="evenodd" clip-rule="evenodd" d="M30.9579 41.0947L24.9851 34.8694L31 29.191V41.0947H30.9579Z" fill="#5298D5"/>
<path fill-rule="evenodd" clip-rule="evenodd" d="M30.9579 9.84253L24.9851 16.0677L31 21.7461V9.88459L30.9579 9.84253Z" fill="#5298D5"/>
<path fill-rule="evenodd" clip-rule="evenodd" d="M31.0001 30.5371V20.358H30.2009V30.5792L31.0001 30.5371Z" fill="#5298D5"/>
<path fill-rule="evenodd" clip-rule="evenodd" d="M1.7666 25.2373L8.03387 30.1586L13.6281 25.3635L8.16006 20.7787L1.7666 25.2373Z" fill="#5298D5"/>
<path fill-rule="evenodd" clip-rule="evenodd" d="M0.294434 41.0947L6.26727 34.8694L0.294434 29.191V41.0947Z" fill="#5298D5"/>
<path fill-rule="evenodd" clip-rule="evenodd" d="M0.294434 9.84253L6.26727 16.0677L0.294434 21.7461V9.88459V9.84253Z" fill="#5298D5"/>
<path fill-rule="evenodd" clip-rule="evenodd" d="M0.294434 30.5371V20.358H1.05155V30.5792L0.294434 30.5371Z" fill="#5298D5"/>
<path fill-rule="evenodd" clip-rule="evenodd" d="M15.3946 1.51416L20.3159 7.73937L15.5208 13.3336L10.936 7.86556L15.3946 1.51416Z" fill="#5298D5"/>
<path fill-rule="evenodd" clip-rule="evenodd" d="M31.2943 0L25.027 6.0149L19.3486 0H31.2522H31.2943Z" fill="#5298D5"/>
<path fill-rule="evenodd" clip-rule="evenodd" d="M0 0L6.22521 6.0149L11.9036 0H0.0420622H0Z" fill="#5298D5"/>
<path fill-rule="evenodd" clip-rule="evenodd" d="M20.6947 0H10.5156V0.75712H20.7367L20.6947 0Z" fill="#5298D5"/>
<path fill-rule="evenodd" clip-rule="evenodd" d="M29.4858 502.055L23.2606 506.976L17.6243 502.181L23.1344 497.596L29.4858 502.055Z" fill="#5298D5"/>
<path fill-rule="evenodd" clip-rule="evenodd" d="M30.9579 517.912L24.9851 511.687L31 506.008V517.87L30.9579 517.912Z" fill="#5298D5"/>
<path fill-rule="evenodd" clip-rule="evenodd" d="M30.9579 486.618L24.9851 492.885L31 498.563V486.66L30.9579 486.618Z" fill="#5298D5"/>
<path fill-rule="evenodd" clip-rule="evenodd" d="M31.0001 507.312V497.175H30.2009V507.397L31.0001 507.312Z" fill="#5298D5"/>
<path fill-rule="evenodd" clip-rule="evenodd" d="M1.7666 502.055L8.03387 506.976L13.6281 502.181L8.16006 497.596L1.7666 502.055Z" fill="#5298D5"/>
<path fill-rule="evenodd" clip-rule="evenodd" d="M0.294434 517.912L6.26727 511.687L0.294434 506.008V517.87V517.912Z" fill="#5298D5"/>
<path fill-rule="evenodd" clip-rule="evenodd" d="M0.294434 486.618L6.26727 492.885L0.294434 498.563V486.66V486.618Z" fill="#5298D5"/>
<path fill-rule="evenodd" clip-rule="evenodd" d="M0.294434 507.312V497.175H1.05155V507.397L0.294434 507.312Z" fill="#5298D5"/>
<path fill-rule="evenodd" clip-rule="evenodd" d="M12.9973 475.934C12.9973 474.462 14.2171 473.242 15.6893 473.242C17.1615 473.242 18.3813 474.462 18.3813 475.934C18.3813 477.406 17.1615 478.626 15.6893 478.626C14.2171 478.626 12.9973 477.406 12.9973 475.934Z" fill="#060606"/>
<path fill-rule="evenodd" clip-rule="evenodd" d="M18.7595 475.681L25.2371 480.771L31.0417 475.808L25.3633 471.097L18.7595 475.681Z" fill="#D03236"/>
<path fill-rule="evenodd" clip-rule="evenodd" d="M12.4925 475.681L6.05703 480.771L0.252441 475.808L5.93084 471.097L12.4925 475.681Z" fill="#D03236"/>
<path fill-rule="evenodd" clip-rule="evenodd" d="M15.4371 472.864L20.5266 466.428L15.5633 460.623L10.8523 466.302L15.4371 472.864Z" fill="#D03236"/>
<path fill-rule="evenodd" clip-rule="evenodd" d="M15.9418 491.161L10.8523 484.725L15.8156 478.92L20.5266 484.599L15.9418 491.161Z" fill="#D03236"/>
<path fill-rule="evenodd" clip-rule="evenodd" d="M15.3946 525.021L20.3159 518.795L15.5208 513.201L10.936 518.669L15.3946 525.021Z" fill="#5298D5"/>
<path fill-rule="evenodd" clip-rule="evenodd" d="M31.2943 526.535L25.027 520.52L19.3486 526.535H31.2522H31.2943Z" fill="#5298D5"/>
<path fill-rule="evenodd" clip-rule="evenodd" d="M0 526.535L6.22521 520.52L11.9036 526.535H0.0420622H0Z" fill="#5298D5"/>
<path fill-rule="evenodd" clip-rule="evenodd" d="M20.6947 526.535H10.5156V525.778H20.7367L20.6947 526.535Z" fill="#5298D5"/>
</svg>